<?xml version="1.0" encoding="UTF-8"?>
<svg width="70px" height="78px" viewBox="0 0 70 78" version="1.1" xmlns="http://www.w3.org/2000/svg" xmlns:xlink="http://www.w3.org/1999/xlink">
    <!-- Generator: Sketch 64 (93537) - https://sketch.com -->
    <title>association</title>
    <desc>Created with Sketch.</desc>
    <defs>
        <linearGradient x1="0%" y1="5.13679063%" x2="100%" y2="94.8632094%" id="linearGradient-1">
            <stop stop-color="#E43210" offset="0%"></stop>
            <stop stop-color="#F05F19" offset="100%"></stop>
        </linearGradient>
        <path d="M50,0 L59.3391758,0 C62.1578242,0 64.4427188,2.28489453 64.4427188,5.10339844 L64.7931164,54.5866809 C64.7931164,57.4051848 62.5082219,59.6900793 59.6895734,59.6900793 L46.9310773,59.6900793 C46.1284953,59.6926809 45.373175,60.070341 44.889718,60.710759 L34.8614172,74.0817785 C34.374925,74.6639504 33.6551594,75.0004191 32.8965148,75.0004191 C32.1378703,75.0004191 31.4182492,74.6639504 30.931757,74.0817785 L20.9034563,60.710759 C20.4198547,60.070341 19.6646789,59.6926809 18.8620969,59.6900793 L6.10345625,59.6900793 C3.28480781,59.6900793 1.00005781,57.4051848 1.00005781,54.5866809 L0.649660156,5.10339844 C0.649660156,2.28489453 2.93441016,0 5.75305859,0 L50,0 Z" id="path-2"></path>
        <polygon id="path-4" points="0.0357849148 0.111949013 43.6054918 0.111949013 43.6054918 62.241332 0.0357849148 62.241332"></polygon>
    </defs>
    <g id="association" stroke="none" stroke-width="1" fill="none" fill-rule="evenodd">
        <path d="M62.6932882,13.0349816 C65.5119367,13.0349816 68.0037148,15.1814961 68.0037148,18 L68.0037148,55 C68.0037148,57.8185039 65.5808593,60 62.7622109,60 L49.0037148,60 C48.2011328,60.0026016 47.4458124,60.3802617 46.9623554,61.0206797 L36.9340546,74.3916992 C36.4475624,74.9738711 35.7277968,75.3103398 34.9691523,75.3103398 C34.2105078,75.3103398 33.4908867,74.9738711 33.0043945,74.3916992 L22.9760937,61.0206797 C22.4924921,60.3802617 21.7373163,60.0026016 20.9347343,60 L7.17609369,60 C4.35744525,60 2.07269525,57.7151055 2.07269525,54.8966016 L2.0037726,18.1383801 C2.0037726,15.3198762 4.2885226,13.0349816 7.10717103,13.0349816 L62.6932882,13.0349816 Z" id="border" fill="#FFFFFF" fill-rule="nonzero"></path>
        <path d="M62,11 L8.10345625,11.0349816 C3.62799034,11.0349816 5.78125009e-05,14.6629851 5.78125009e-05,19.1383801 L-0.00371478351,53.7522564 L-6.18528666e-14,54 C0.130943737,58.3607777 3.5212959,62 7.91388281,62 L20.4484266,61.9999207 L30.3421867,75.1917034 L30.4401452,75.3153986 C31.4966246,76.5796586 33.0593772,77.3103398 34.7069414,77.3103398 C36.3544938,77.3103398 37.9173951,76.5796677 38.9738821,75.3153986 L39.0718406,75.1917034 L48.9644266,61.9999207 L61.896457,62.1033984 C66.3719242,62.1033984 70,58.4753936 70,54 L70,19 C70,14.5246064 66.4754672,11 62,11 Z M61.6895734,14.0349816 C64.5082219,14.0349816 67,16.1814961 67,19 L67,54 C67,56.8185039 64.5771445,59 61.7584961,59 L49,59 C48.197418,59.0026016 47.4420977,59.3802617 46.9586406,60.0206797 L36.9303398,73.3916992 C36.4438477,73.9738711 35.724082,74.3103398 34.9654375,74.3103398 C34.206793,74.3103398 33.4871719,73.9738711 33.0006797,73.3916992 L22.9723789,60.0206797 C22.4887773,59.3802617 21.7336016,59.0026016 20.9310195,59 L8.17237891,59 C5.35373047,59 3.06898047,56.7151055 3.06898047,53.8966016 L3.00005781,19.1383801 C3.00005781,16.3198762 5.28480781,14.0349816 8.10345625,14.0349816 L61.6895734,14.0349816 Z" id="bg" fill="url(#linearGradient-1)" fill-rule="nonzero"></path>
        <g id="inside" transform="translate(2.000000, 0.000000)">
            <mask id="mask-3" fill="white">
                <use xlink:href="#path-2"></use>
            </mask>
            <g id="is-hands-mask"></g>
            <g id="hands" mask="url(#mask-3)">
                <g transform="translate(0.769808, 2.500000)">
                    <g id="hand1" transform="translate(-0.000049, 0.000427)">
                        <path d="M40.9265779,17.4279134 L38.5993648,19.2420528 C36.768627,20.669143 35.1203484,22.3022987 33.6818238,24.1037741 C32.2444057,25.906602 31.9676434,29.2286102 30.983668,31.3305774 C30.1126844,33.1900856 28.5922746,33.8242659 28.3397336,35.8619298 L13.9364139,74.8973397 C10.6535041,73.3207413 5.98813525,75.4661102 3.53219262,72.9972577 C2.91620902,72.3773397 2.32665984,71.7333233 1.76711066,71.069143 C1.14178279,70.3259052 0.551987705,69.5552495 6.14754097e-05,68.7609872 L13.441168,33.5278315 C13.543709,32.7004954 13.2182582,31.8871757 12.6000615,31.3273807 C12.5978484,31.3246757 12.5945287,31.3217249 12.591209,31.3187741 L12.5899795,31.3187741 L2.42920082,22.0637741 C2.25092213,21.9017249 2.09465164,21.7238151 1.95928279,21.5360692 C1.06936475,20.2995528 1.10735656,18.5834052 2.12071721,17.3834052 C2.14715164,17.3508233 2.17862705,17.3162741 2.20727459,17.2850446 C2.84981557,16.5793069 3.72092213,16.2077495 4.60506148,16.1809462 C5.45206967,16.1546348 6.30928279,16.4454134 6.98625,17.0607823 L12.1973975,21.8085282 C12.1998566,21.7184052 12.2039139,21.6259462 12.2028074,21.534102 C12.2185451,20.9971757 12.2182992,20.4593889 12.2030533,19.9223397 C12.148709,17.8911921 11.8980123,15.8654544 11.4498566,13.8724216 L10.4139959,9.26410197 L9.62870902,5.77340525 C9.51006148,5.2407823 9.52260246,4.70963475 9.64616803,4.21205279 C9.94739754,3.01168393 10.8976844,2.02057738 12.1874385,1.7307823 C13.2540369,1.49115115 14.3155943,1.78254459 15.0949795,2.43172492 C15.6498566,2.89315934 16.0600205,3.53250361 16.2300615,4.2895118 L16.4019467,5.05291344 L18.2791598,13.399061 L19.5717418,2.96656098 C19.6195697,2.58098721 19.7302254,2.21803639 19.893627,1.88889705 C20.4705123,0.712872459 21.70125,-0.0515127867 23.058627,0.00270852475 C23.1228074,0.00455278704 23.1889549,0.0102085247 23.2575615,0.0162331149 C23.2639549,0.0157413116 23.2723156,0.0180773772 23.2809221,0.0178314756 C23.3505123,0.0264380329 23.41875,0.0361511477 23.4868648,0.0458642625 C24.5170697,0.220577377 25.3681352,0.871110164 25.8560041,1.74307738 C25.9918648,1.98664295 26.1007992,2.24791344 26.1759221,2.52111016 C26.2972746,2.95119213 26.3357582,3.41065934 26.2780943,3.87553639 L24.9668238,14.4592659 L29.3572746,4.97188885 C29.5752664,4.50209377 29.8882992,4.10594623 30.2614549,3.7942659 C31.1617008,3.04721672 32.4157992,2.79492164 33.5673566,3.21024951 C33.6504713,3.23914295 33.7329713,3.27283148 33.8152254,3.30910197 C33.8282582,3.31438885 33.838832,3.31942984 33.8491598,3.32570033 C34.1373566,3.45922492 34.3977664,3.62656098 34.6274385,3.8235282 C35.50125,4.56983967 35.936373,5.71770852 35.7820697,6.8532823 C35.7380533,7.17861016 35.6446107,7.50270852 35.4991598,7.81672492 L31.6853484,16.0500036 L36.7660451,12.0906184 C38.2414549,10.941643 40.3645697,11.2046348 41.5135451,12.6800446 C42.6643648,14.1520118 42.4007582,16.2788151 40.9265779,17.4279134" id="Fill-1" fill="#FFCBBE"></path>
                        <path d="M22.575873,24.9178315 C20.6323893,21.6812741 17.9154221,20.4936921 15.9768566,20.0670528 C15.6929631,20.0045938 15.4176762,19.9567659 15.1530861,19.9198807 C14.0546434,15.4347577 10.9314467,2.20561836 12.1875123,1.73041344 C10.3639057,2.14008557 9.21935656,3.9507823 9.62915164,5.77438885 L11.4496844,13.8727905 C12.0350533,16.4800856 12.285627,19.1467659 12.1974713,21.8086511 C12.1974713,21.8086511 12.2691516,21.7825856 12.4016926,21.7433643 C13.3066107,21.4750856 14.2619385,21.4223397 15.1924303,21.5819298 C17.0422254,21.899143 19.4600533,22.899102 21.1768156,25.7578315 C21.3113238,25.9817249 21.535709,26.1180774 21.7765697,26.1478315 C21.9515287,26.1695938 22.1344795,26.1352905 22.2966516,26.0380364 C22.6830861,25.8050446 22.8076352,25.30402 22.575873,24.9178315" id="Fill-9" fill="#EAAC9D"></path>
                        <path d="M15.5620943,36.5385405 L1.76713525,71.0691552 C1.14180738,70.3259175 0.551889344,69.5552618 8.60655737e-05,68.7609995 L13.4411926,33.5278438 C13.5436107,32.7005077 13.2182828,31.887188 12.6000861,31.327393 C12.597873,31.324688 12.5945533,31.3217372 12.5911107,31.3187864 L12.5900041,31.3186634 L2.42922541,22.0637864 C2.25094672,21.9017372 2.09467623,21.7238274 1.95930738,21.5360815 C1.06938934,20.2995651 1.10738115,18.5834175 2.1207418,17.3834175 C2.14717623,17.3507126 2.17865164,17.3162864 2.20729918,17.2850569 C1.88504508,17.7159995 2.16340574,18.5186225 2.81270902,19.5083766 C4.66447131,22.3308356 9.52902049,26.6762864 12.0599631,28.247352 C15.4767664,30.3680077 16.0459057,32.6338684 15.5620943,36.5385405" id="Fill-11" fill="#EAAC9D"></path>
                        <path d="M25.7253443,44.4125692 L13.9364508,74.8973643 C8.90763934,72.4818725 3.01214754,73.0972413 9.83606556e-05,68.7610118 L11.6472295,39.0285528 L25.7253443,44.4125692 Z" id="Fill-13" fill="#EB4D16"></path>
                        <path d="M16.1419672,40.7475651 L3.53213115,72.9973192 C2.22639344,71.6858028 1.04594262,70.2668274 -5.5067062e-14,68.7610487 L11.6471311,39.0285897 L16.1419672,40.7475651 Z" id="Fill-15" fill="#7A2B0F"></path>
                        <path d="M22.5610451,52.0735733 L9.00055328,46.8875077 C8.14862705,46.561811 7.72211066,45.6069749 8.04780738,44.7551716 L11.1880943,36.5437782 C11.5139139,35.6919749 12.46875,35.2653356 13.3205533,35.5911552 L26.881168,40.7772208 C27.7329713,41.1029175 28.1596107,42.0577536 27.833791,42.9096798 L24.6935041,51.1209503 C24.3676844,51.9728766 23.4130943,52.399393 22.5610451,52.0735733" id="Fill-18" fill="#F6F1F1"></path>
                        <path d="M14.4264836,48.9624626 L9.00140164,46.8876675 C8.14935246,46.5618479 7.72197541,45.6072577 8.04791803,44.7550856 L11.188082,36.544061 C11.5139016,35.6920118 12.4695984,35.2651266 13.3217705,35.5909462 L18.7467295,37.6656184 C17.8946803,37.3397987 16.9400902,37.7671757 16.6141475,38.6192249 L13.4739836,46.8302495 C13.1481639,47.6824216 13.5743115,48.63652 14.4264836,48.9624626" id="Fill-20" fill="#DFEAEF"></path>
                        <path d="M41.5144426,12.6785815 C40.7316148,11.6743192 37.1546066,14.5353848 34.9124754,16.5011225 C33.9240738,17.3675569 32.3977623,17.1549749 31.6855082,16.0502618 L36.7657131,12.0901389 C38.2401393,10.9419011 40.365959,11.2053848 41.5144426,12.6785815" id="Fill-3" fill="#EAAC9D"></path>
                        <path d="M33.8164426,3.31024541 C32.5237377,2.82213066 29.3073443,10.0232372 27.7245984,13.7943848 C27.2647623,14.8902454 25.8749262,15.2256552 24.965582,14.4605323 L29.357877,4.97340115 C30.138123,3.28897492 32.1284508,2.54979459 33.8164426,3.31024541" id="Fill-5" fill="#EAAC9D"></path>
                        <path d="M18.2790123,13.3986921 L19.5715943,2.96680689 C19.7978238,1.14111016 21.4381107,-0.164012787 23.2575369,0.0162331149 C22.2481107,0.00885606573 21.1649139,8.02475771 20.6752008,12.1432413 C20.5390943,13.2870528 19.2974139,13.9372167 18.2790123,13.3986921" id="Fill-7" fill="#EAAC9D"></path>
                    </g>
                    <g id="hand2" transform="translate(21.885246, 1.619139)">
                        <g id="Group-24">
                            <mask id="mask-5" fill="white">
                                <use xlink:href="#path-4"></use>
                            </mask>
                            <g id="Clip-23"></g>
                            <path d="M36.5248033,10.7940369 L36.5048852,10.8267418 L34.9914836,13.316127 C33.7863197,15.2999385 32.8260738,17.411373 32.120459,19.606168 C31.4160738,21.8018238 30.9693934,24.0776434 30.7952951,26.3919467 C30.6409918,28.4394467 30.8111557,30.5001025 31.2981639,32.4948566 L43.605541,50.7754303 C40.763041,55.5052254 36.670623,59.5101025 31.5989016,62.241332 L16.5409918,35.5993648 C16.3431639,34.7894877 15.7502951,34.1444877 14.9737377,33.8404303 C14.9706639,33.8385861 14.9666066,33.8371107 14.9624262,33.8356352 L14.9611967,33.8360041 L2.17763115,28.78875 C0.479680328,28.1174385 -0.372368852,26.2295287 0.227262295,24.5227254 C0.24152459,24.4825205 0.257508197,24.4393648 0.273245902,24.4001434 C0.959680328,22.6606352 2.92357377,21.8089549 4.66283607,22.4942828 L11.2195574,25.083873 C11.1898033,24.998791 11.1607869,24.9108811 11.1273443,24.8254303 C10.9515246,24.3178893 10.7591066,23.8155123 10.555623,23.3184221 C9.78410656,21.438873 8.8307459,19.633832 7.70463934,17.9294877 L3.12804098,11.003791 C2.82816393,10.5480123 2.65136066,10.0468648 2.59037705,9.53784836 C2.44590984,8.30870902 2.98283607,7.04489754 4.08570492,6.31629098 C4.99677049,5.71407787 6.09386066,5.60956967 7.05287705,5.93981557 C7.73414754,6.17465164 8.34570492,6.6264959 8.77209836,7.27420082 L13.9215246,15.063627 L11.428082,4.85133197 C11.3359918,4.47387295 11.3094344,4.09567623 11.3466885,3.72952869 C11.4686557,2.42538934 12.3470164,1.27432377 13.6351721,0.843381148 C13.6970164,0.821987705 13.7609508,0.803790984 13.8272213,0.785102459 C13.8327541,0.782397541 13.8416066,0.781536885 13.8495984,0.778340164 C13.9177131,0.761741803 13.9848443,0.746618852 14.0520984,0.731495902 C15.3644754,0.47182377 16.6783279,1.04821721 17.4444344,2.09145492 C17.7092705,2.45071721 17.9083279,2.86665984 18.0193525,3.32170082 L20.5489426,13.6821516 L21.2883689,3.25383197 C21.3255,2.73731557 21.4775902,2.25596311 21.7158689,1.83190574 C22.2923852,0.814118852 23.375459,0.133217213 24.598082,0.11317623 C24.6873443,0.110348361 24.7764836,0.112684426 24.8662377,0.117356557 C24.8802541,0.11772541 24.8907049,0.118954918 24.9037377,0.12079918 C25.2207049,0.143422131 25.5235328,0.207479508 25.808041,0.310020492 C26.8898852,0.697807377 27.7040656,1.6164959 27.9615246,2.7332582 C28.0370164,3.05280738 28.0645574,3.38895492 28.0400902,3.73420082 L27.3959508,12.7849795 L30.7410738,7.28034836 C31.2682869,6.41243852 32.1223033,5.86727459 33.0486148,5.70571721 C33.8273852,5.56739754 34.6576721,5.70264344 35.3888607,6.14686475 C36.9869754,7.11461066 37.433041,9.29907787 36.5248033,10.7940369" id="Fill-22" fill="#66A0D4" mask="url(#mask-5)"></path>
                        </g>
                        <path d="M35.3888238,6.14520492 C34.3004631,5.48409836 31.9715287,9.4282377 30.5728402,12.0617213 C29.9562418,13.2225 28.4537828,13.5652869 27.3959139,12.7851639 L30.7402992,7.28016393 C31.7114877,5.68340164 33.7924303,5.1752459 35.3888238,6.14520492" id="Fill-25" fill="#2D3883"></path>
                        <path d="M24.8675287,0.117909836 C23.4858074,0.120245902 23.0338402,7.99413934 22.8923238,12.0815164 C22.8512582,13.2692213 21.6708074,14.0760246 20.549127,13.6834426 L21.289168,3.25512295 C21.4209713,1.40348361 23.0195779,0.00602459016 24.8675287,0.117909836" id="Fill-27" fill="#2D3883"></path>
                        <path d="M13.9209344,15.0633934 L11.4277377,4.85171311 C10.9913852,3.06462295 12.0617951,1.26228689 13.8267541,0.785237705 C12.8804016,1.1365082 14.7122459,9.01519672 15.7157705,13.039377 C15.994377,14.157 15.0642541,15.2054016 13.9209344,15.0633934" id="Fill-29" fill="#2D3883"></path>
                        <path d="M13.344123,23.8164959 C13.2972787,23.1545287 13.086418,22.4416598 13.0269098,21.853832 C10.1836721,17.7084221 3.114,7.17559426 4.08543443,6.31592213 C2.52592623,7.34612705 2.09830328,9.44514344 3.12863115,11.0045287 L7.70436885,17.9299795 C9.17670492,20.1598156 10.3572787,22.5642418 11.2194098,25.0841189 C11.2194098,25.0841189 11.2771967,25.0342008 11.3871148,24.9505943 C11.9655984,24.5099385 12.6178525,24.1800615 13.3101885,23.9682172 C13.3215,23.9176844 13.3328115,23.8671516 13.344123,23.8164959" id="Fill-31" fill="#2D3883"></path>
                        <path d="M19.5921639,37.661373 L33.7741721,60.9535451 C33.0712623,61.4098156 32.3449918,61.8391598 31.5988033,62.241332 L16.5410164,35.5993648 C16.3431885,34.7894877 15.7503197,34.1444877 14.9737623,33.8404303 C14.9706885,33.8385861 14.9666311,33.8371107 14.9624508,33.8356352 L14.9612213,33.8360041 L2.17753279,28.78875 C0.479704918,28.1174385 -0.372344262,26.2295287 0.227286885,24.5227254 C0.24142623,24.4825205 0.257532787,24.4393648 0.273270492,24.4001434 C-0.298942623,26.3901025 9.4249918,30.3820697 13.3746639,31.1528484 C17.3227377,31.9227664 18.6588443,33.8393238 19.5921639,37.661373" id="Fill-33" fill="#2D3883"></path>
                    </g>
                </g>
            </g>
        </g>
    </g>
</svg>