<svg id="activity" xmlns="http://www.w3.org/2000/svg" xmlns:xlink="http://www.w3.org/1999/xlink" viewBox="0 0 70 78" shape-rendering="geometricPrecision" text-rendering="geometricPrecision"><style><![CDATA[]]></style><defs><path id="activity-path-2" d="M50,1L59.896457,0.896602C62.715105,0.896602,65,3.181496,65,6L65,58C65,60.818504,62.853688,61.521620,60.035040,61.521620L47,61.500000C46.197418,61.502602,45.442098,61.880262,44.958641,62.520680L35,77C34.513508,77.582172,33.793742,77.918641,33.035098,77.918641C32.276453,77.918641,31.556832,77.582172,31.070340,77L20.800000,62.520680C20.316398,61.880262,19.561223,61.502602,18.758641,61.500000L6,61.500000C3.181352,61.500000,1,61.818504,1,59L0.649660,6.103398C0.649660,3.284895,2.934410,1,5.753059,1L50,1Z"/><path id="activity-path-4" d="M59.798571,0.947994C62.617219,0.947994,64.902114,3.232888,64.902114,6.051392L64.971036,40.809613C64.971036,43.628117,62.755122,46.413012,59.936474,46.413012L46.971094,46.499693C46.168512,46.502294,45.413192,46.879954,44.929735,47.520373L34.901434,60.891392C34.414942,61.473564,33.695176,61.810033,32.936532,61.810033C32.177887,61.810033,31.458266,61.473564,30.971774,60.891392L20.943473,47.520373C20.459871,46.879954,19.704696,46.502294,18.902114,46.499693L6.143473,46.499693C3.324825,46.499693,0.971094,43.714798,0.971094,40.896294L0.902172,6.138073C0.902172,3.319569,3.186922,1.034674,6.005570,1.034674L59.798571,0.947994Z"/><polygon id="activity-path-6" points="0.040660,-0.000128 11.920992,-0.000128 11.920992,4.946438 0.040660,4.946438"/><linearGradient id="activity-border-fill" x1="0" y1="0.051945" x2="1" y2="0.948055" spreadMethod="pad" gradientUnits="objectBoundingBox"><stop id="activity-border-fill-0" offset="0%" stop-color="rgb(0,210,255)"/><stop id="activity-border-fill-1" offset="100%" stop-color="rgb(58,123,213)"/></linearGradient></defs><g id="activity-activity"><path id="activity-fill-1" d="M52.746941,13.948301L64.396457,13.896602C67.215106,13.896602,67.500000,15.181496,67.500000,18L67.500000,55.448301C67.500000,58.266805,67.215106,58.551699,64.396457,58.551699L48.931077,58.690079C48.128495,58.692681,47.373175,59.070341,46.889718,59.710759L36.861417,73.081778C36.374925,73.663950,35.655159,74.000419,34.896515,74.000419C34.137870,74.000419,33.418249,73.663950,32.931757,73.081778L22.903456,59.710759C22.419855,59.070341,21.802582,60.502602,21,60.500000L5,60C2.181352,60,2.362097,57.508583,2.362097,54.690079L2.362155,17.828459C2.362155,15.009956,3.543448,13.690079,6.362097,13.690079L52.746941,13.948301Z" fill="rgb(255,255,255)" fill-rule="evenodd" stroke="none" stroke-width="1"/><path id="activity-border" d="M61.896457,10.948301L8.103456,11.034982C3.627990,11.034982,0.000058,14.662985,0.000058,19.138380L-0.103398,53.896602L-0.099684,54.144345C0.031260,58.505123,3.607413,62,8,62L20.534544,61.999921L30.428304,75.191703L30.526262,75.315399C31.582742,76.579659,33.145494,77.310340,34.793059,77.310340C36.440611,77.310340,38.003512,76.579668,39.059999,75.315399L39.157958,75.191703L49.050544,61.999921L61.793001,61.913319C66.268468,61.913319,69.896544,58.285314,69.896544,53.809921L70,19.051699C70,14.576306,66.371924,10.948301,61.896457,10.948301ZM61.896457,13.948301C64.715106,13.948301,67,16.233195,67,19.051699L67.068923,53.809921C67.068923,56.628425,64.784028,58.913319,61.965380,58.913319L49,59C48.197418,59.002602,47.442098,59.380262,46.958641,60.020680L36.930340,73.391699C36.443848,73.973871,35.724082,74.310340,34.965438,74.310340C34.206793,74.310340,33.487172,73.973871,33.000680,73.391699L22.972379,60.020680C22.488777,59.380262,21.733602,59.002602,20.931020,59L8.172379,59C5.353730,59,3.068980,56.715105,3.068980,53.896602L3.000058,19.138380C3.000058,16.319876,5.284808,14.034982,8.103456,14.034982L61.896457,13.948301Z" fill="url(#activity-border-fill)" stroke="none" stroke-width="1"/><g id="activity-group" transform="matrix(1 0 0 1 2 -2)"><g id="activity-g1" mask="url(#activity-mask-3)"><g id="activity-group-90"><g id="activity-g2" transform="matrix(1 0 0 1 0 6.50000000000000)"><g id="activity-group-7" transform="matrix(1 0 0 1 0.09788600000000 8.50031000000000)"><use id="activity-path" width="64.068871" height="60.862038" xlink:href="#activity-path-4" fill="rgb(70,165,205)" fill-rule="evenodd" stroke="none" stroke-width="1"/><g id="activity-g3" mask="url(#activity-mask-5)"><g id="activity-path2_to" transform="translate(9.891383,-5.974147)"><g id="activity-path2_tr" transform="rotate(0)"><path id="activity-path2" d="M11.902114,47.499693L24.712162,42.308842C26.514394,41.654349,28.476385,41.608829,30.306079,42.178913L35.891469,43.919256C38.006696,44.578212,40.302624,43.851295,41.675992,42.088000C47.251976,34.928480,47.330225,34.605122,48.790746,33.648947L57.276861,28.093211C58.919837,27.017561,60.045918,25.292773,60.382865,23.335796C60.798562,20.921960,60.664636,18.601077,61.636603,15.797580L67.679691,10C67.942527,10.655514,66.402114,5.999693,66.402114,3.999693C66.402114,2.666359,67.402114,0.333026,69.402114,-3.000307L67.902114,-8.000307C67.235447,-14.000307,66.735447,-17.166974,66.402114,-17.500307C65.902114,-18.000307,57.402114,-24.000307,55.902114,-24.000307C54.402114,-24.000307,52.902114,-30.000307,51.902114,-30.000307C50.902114,-30.000307,43.402114,-31.000307,42.902114,-31.500307C42.402114,-32.000307,41.902114,-32.000307,39.902114,-34.500307C37.902114,-37.000307,39.902114,-38.000307,36.402114,-38.000307C32.902114,-38.000307,30.902114,-37.500307,27.902114,-38.500307C24.902114,-39.500307,24.902114,-40.500307,20.902114,-40.500307C16.902114,-40.500307,8.902114,-45.000307,5.902114,-45.000307C2.902114,-45.000307,0.902114,-45.000307,-2.097886,-43.500307C-5.097886,-42.000307,-6.597886,-40.500307,-11.097886,-40.500307C-15.597886,-40.500307,-20.097886,-40.000307,-20.597886,-38.000307C-21.097886,-36.000307,-21.597886,-35.000307,-26.097886,-33.000307C-30.597886,-31.000307,-36.097886,-26.500307,-36.097886,-24.000307C-36.097886,-21.500307,-33.597886,-21.000307,-34.097886,-15.000307C-34.597886,-9.000307,-37.597886,-7.000307,-36.097886,-4.500307C-34.597886,-2.000307,-31.097886,6.499693,-31.097886,7.499693C-31.097886,8.499693,-36.097886,13.499693,-36.097886,14.999693C-36.097886,16.499693,-36.597886,21.999693,-36.097886,21.999693C-35.597886,21.999693,-34.097886,26.499693,-31.097886,26.499693C-28.097886,26.499693,-33.097886,26.499693,-28.597886,30.999693C-24.097886,35.499693,-25.597886,34.999693,-23.097886,36.499693C-20.597886,37.999693,-20.097886,34.499693,-18.597886,38.499693C-17.097886,42.499693,-19.097886,43.999693,-15.097886,43.999693C-11.097886,43.999693,-12.597886,39.499693,-8.097886,43.999693C-3.597886,48.499693,-2.597886,49.499693,-1.097886,48.499693C0.402114,47.499693,1.902114,45.999693,3.902114,47.499693C5.235447,48.499693,7.902114,48.499693,11.902114,47.499693Z" transform="translate(-9.933334,1.995270)" fill="rgb(255,255,255)" fill-rule="evenodd" stroke="none" stroke-width="1"/></g></g><path id="activity-fill-73" d="M19.902114,65.499693C9.925705,65.499693,13.880863,52.622936,8,45.553759L10.573454,46.300021L13.902114,54.499693L30.321072,52.640686C31.683692,52.682315,33.026074,52.304460,34.165690,51.558454C40.417373,47.465894,37.416739,49.247522,43.233685,46.697924C51.491128,39.473724,52.938928,39.124089,54.337926,36.375795C56.666216,31.802328,56.806602,31.359986,57.668391,30.339176L60.943906,26.459104C61.803005,25.441615,62.334321,24.189673,62.469072,22.866477L65.902114,10.999693C72.681399,31.275801,90.111363,66.499693,67.902114,66.499693L19.902114,65.499693Z" fill="rgb(108,208,245)" fill-rule="evenodd" stroke="none" stroke-width="1"/><mask id="activity-mask-5" mask-type="luminance"><use id="activity-use1" width="64.068871" height="60.862038" xlink:href="#activity-path-4" fill="rgb(255,255,255)" fill-rule="evenodd" stroke="none" stroke-width="1"/></mask></g></g><g id="activity-man_to" transform="translate(22.500000,30.500000)"><g id="activity-man" transform="translate(-22.500000,-30.500000)"><g id="activity-arm2_tr" transform="translate(15,12.500000) rotate(0)"><g id="activity-arm2" transform="translate(0,0)"><path id="activity-fill-44" d="M16.493811,1.124723C15.949398,0.708670,15.167902,0.771514,14.701067,1.268938L9.418938,6.897288C9.374058,6.945117,9.297101,6.947054,9.249859,6.901284L6.799320,4.532223L7.243527,4.086019C7.370710,3.958272,7.367478,3.754120,7.236317,3.630249L4.061097,0.631416C3.149930,-0.229147,1.694849,-0.207351,0.811407,0.680214L0.648295,0.844166C-0.235272,1.731610,-0.212894,3.148808,0.698397,4.009250L3.873617,7.008082C4.004778,7.131954,4.214387,7.128806,4.341570,7.001059L4.582385,6.759128C7.560055,9.921669,7.375310,9.675137,8.525675,10.597575C9.298469,11.217175,10.440753,11.109287,11.076915,10.356734L16.740468,2.904697C17.166276,2.344066,17.057120,1.555308,16.493811,1.124723" fill="rgb(75,185,225)" fill-rule="evenodd" stroke="none" stroke-width="1"/><path id="activity-fill-71" d="M40.822041,33.907410L40.822041,33.907410C40.603944,34.074100,40.269342,34.009611,40.071639,33.763096L14.253459,1.546427C13.890431,1.093372,13.921023,0.473376,14.321781,0.167275C14.722412,-0.138701,15.338845,-0.012992,15.692695,0.446977L40.867930,33.154665C41.060533,33.405077,41.040138,33.740720,40.822041,33.907410" fill="rgb(75,185,225)" fill-rule="evenodd" stroke="none" stroke-width="1"/></g></g><g id="activity-leg2_tr" transform="translate(19.500000,32.500000) rotate(0)"><g id="activity-leg2" transform="translate(-9.500000,-2)"><g id="activity-leg2b_tr" transform="translate(12.245740,12.530163) rotate(0)"><g id="activity-leg2b" transform="translate(-12.245740,-2.530163)"><path id="activity-fill-24" d="M7.632756,11.923554L5.147732,9.995085C4.980533,9.865211,4.950712,9.613105,5.081601,9.434760L11.319865,0.191645C11.470469,-0.016995,11.752336,-0.062437,11.946362,0.090750L14.827797,2.366031C15.021823,2.519350,15.057259,2.815318,14.906655,3.023958L8.174780,11.835304C8.044015,12.013781,7.799955,12.053427,7.632756,11.923554" fill="rgb(255,175,130)" fill-rule="evenodd" stroke="none" stroke-width="1"/><path id="activity-fill-26" d="M5.404619,10.438688L12.305791,2.249696C12.525805,1.994543,12.838124,1.873418,13,1.980300L11.575763,1.038937C11.413886,0.931934,11.101568,1.053180,10.881554,1.308211L4.176286,9.640727C3.984928,9.858751,3.942771,10.111348,4.082329,10.202161L5.310524,11C5.171103,10.909309,5.213398,10.656712,5.404619,10.438688" fill="rgb(250,135,90)" fill-rule="evenodd" stroke="none" stroke-width="1"/><path id="activity-fill-28" d="M9.573082,18.659223L9.400777,18.857606C9.263615,19.015601,9.005227,19.046750,8.823660,18.927720L1.163819,13.898402C0.982116,13.779136,0.946157,13.554342,1.083183,13.396465L3.914012,10.136718C4.045454,9.985355,4.295533,9.954917,4.469744,10.069327L8.207043,12.522991C8.380573,12.636928,8.415442,12.854141,8.283865,13.005859L7.341844,14.090744C7.157826,14.302747,7.206180,14.604407,7.449994,14.764652L9.052083,15.816493C10.078961,16.490638,10.302071,17.747730,9.571175,18.657802L9.573082,18.659223Z" fill="rgb(170,97,0)" fill-rule="evenodd" stroke="none" stroke-width="1"/><path id="activity-fill-30" d="M3.281921,13.700531L5.514169,10.936211C5.629071,10.793888,5.847790,10.765356,6,10.872795L4.856104,10.065109C4.703895,9.957670,4.485175,9.986202,4.370273,10.128525L2,13.063477L3.326500,14C3.225781,13.928894,3.205757,13.794707,3.281921,13.700531" fill="rgb(136,77,0)" fill-rule="evenodd" stroke="none" stroke-width="1"/><path id="activity-fill-32" d="M7.611364,12.947709L3.107015,9.681972C2.988264,9.595971,2.964835,9.433609,3.054400,9.319841L4.011633,8.102838C4.101198,7.988813,4.270153,7.966187,4.388636,8.052189L8.892985,11.318054C9.011736,11.404056,9.035165,11.566289,8.945600,11.680186L7.988367,12.897188C7.898936,13.011214,7.730115,13.033839,7.611364,12.947709" fill="rgb(204,116,0)" fill-rule="evenodd" stroke="none" stroke-width="1"/><path id="activity-fill-34" d="M4.571413,10.557830L5.572768,9.264668C5.699960,9.100604,5.891283,9.032417,6,9.112514L4.534614,8.033589C4.425897,7.953492,4.234574,8.021530,4.107382,8.185743L3.106027,9.478905C2.978835,9.642969,2.964024,9.840978,3.072740,9.921075L4.538126,11C4.429409,10.920052,4.444221,10.722043,4.571413,10.557830" fill="rgb(170,97,0)" fill-rule="evenodd" stroke="none" stroke-width="1"/><path id="activity-fill-36" d="M9,19.284550L8.766391,19.586858C8.504592,19.925285,8.141480,20.088570,7.955458,19.951454L0.107644,14.163710C-0.078518,14.026321,-0.017115,13.640735,0.244683,13.302036L0.478292,13L9,19.284550Z" fill="rgb(255,182,85)" fill-rule="evenodd" stroke="none" stroke-width="1"/><path id="activity-fill-38" d="M1.592249,15L0.118354,14.081845C-0.086366,13.954137,-0.018792,13.595084,0.269168,13.280628L0.526105,13L2,13.918155L1.743063,14.198784C1.455103,14.513366,1.387682,14.872292,1.592249,15" fill="rgb(255,152,17)" fill-rule="evenodd" stroke="none" stroke-width="1"/></g></g><g id="activity-leg2a" transform="matrix(1 0 0 1 7 0)"><path id="activity-fill-40" d="M0,1.150080L0.588434,13.073110C0.600578,13.318613,0.800402,13.517201,1.054461,13.535461L7.458231,13.998611C7.754932,14.020070,8.006230,13.790027,7.999882,13.502807L7.706493,0L0,1.150080Z" fill="rgb(150,80,40)" fill-rule="evenodd" stroke="none" stroke-width="1"/><path id="activity-fill-42" d="M3,14L1.018350,13.860873C0.772026,13.842655,0.579420,13.657360,0.568357,13.428019L0,2.265402L1.833030,2L3,14Z" fill="rgb(105,40,15)" fill-rule="evenodd" stroke="none" stroke-width="1"/></g></g></g><g id="activity-leg1_to" transform="translate(22.700290,33.197564)"><g id="activity-leg1_tr" transform="rotate(0)"><g id="activity-leg1" transform="translate(-6.700290,-3.697564)"><g id="activity-leg2b2_to" transform="translate(14,8)"><g id="activity-leg2b2_tr" transform="rotate(0)"><g id="activity-leg2b2" transform="translate(0,0)"><path id="activity-fill-8" d="M11.873634,10.760310L9.575281,12.904790C9.420759,13.049248,9.182211,13.026721,9.045561,12.854891L0.109810,3.252275C-0.050670,3.053858,-0.033170,2.755250,0.148658,2.588396L2.849763,0.110078C3.031591,-0.056776,3.311593,-0.030976,3.472073,0.167311L11.906525,10.185620C12.043051,10.357320,12.028281,10.615852,11.873634,10.760310" fill="rgb(255,175,130)" fill-rule="evenodd" stroke="none" stroke-width="1"/><path id="activity-fill-10" d="M11.435037,11.829122L2.480596,2.677792C2.258989,2.425883,2.195006,2.121052,2.338384,2L1.076478,3.064707C0.933230,3.185634,0.997083,3.490716,1.218950,3.742626L10.361323,12.750528C10.550162,12.968749,10.804538,13.061644,10.926415,12.956933L12,12.035527C11.878381,12.140112,11.623876,12.047218,11.435037,11.829122" fill="rgb(250,135,90)" fill-rule="evenodd" stroke="none" stroke-width="1"/><path id="activity-fill-12" d="M19.743240,9.766824L19.910480,9.985516C20.043539,10.159645,20.026327,10.422489,19.871783,10.572410L13.354927,16.899089C13.200382,17.049011,12.967223,17.029754,12.834042,16.855488L10.085817,13.261778C9.958129,13.094802,9.974853,12.840761,10.123171,12.696891L13.302679,9.610025C13.450387,9.466569,13.675734,9.485549,13.803544,9.652663L14.718113,10.848595C14.896828,11.082280,15.210067,11.108551,15.417346,10.907051L16.780411,9.583892C17.654208,8.735668,18.962951,8.823833,19.741409,9.768749L19.743240,9.766824Z" fill="rgb(170,97,0)" fill-rule="evenodd" stroke="none" stroke-width="1"/><path id="activity-fill-14" d="M13.669589,14.992991L11.196138,12.444240C11.068729,12.313046,11.085432,12.113117,11.233446,12L10.122728,12.849620C9.974958,12.962845,9.958254,13.162774,10.085542,13.293968L12.711884,16L14,15.014532C13.901730,15.089654,13.753838,15.079912,13.669589,14.992991" fill="rgb(136,77,0)" fill-rule="evenodd" stroke="none" stroke-width="1"/><path id="activity-fill-16" d="M13.920105,11.544938L10.266230,14.939877C10.170016,15.029319,10.024721,15.017599,9.941777,14.913847L9.055708,13.804900C8.972879,13.701272,8.983633,13.544595,9.079848,13.455031L12.733837,10.060214C12.830052,9.970650,12.975347,9.982370,13.058291,10.086245L13.944245,11.195068C14.027189,11.298820,14.016320,11.455373,13.920105,11.544938" fill="rgb(204,116,0)" fill-rule="evenodd" stroke="none" stroke-width="1"/><path id="activity-fill-18" d="M10.568885,13.666043L9.497432,12.439169C9.361370,12.283354,9.333766,12.086911,9.435737,12L8.061538,13.168090C7.959567,13.254704,7.987172,13.451593,8.123234,13.607259L9.194837,14.834282C9.330749,14.989948,9.523830,15.045904,9.625802,14.959142L11,13.791052C10.897727,13.877814,10.704796,13.821858,10.568885,13.666043" fill="rgb(170,97,0)" fill-rule="evenodd" stroke="none" stroke-width="1"/><path id="activity-fill-20" d="M19.501114,10L19.735581,10.268846C19.998644,10.570148,20.078870,10.927545,19.915054,11.066824L13.007222,16.944387C12.843536,17.083666,12.497530,16.952309,12.234725,16.651135L12,16.382161L19.501114,10Z" fill="rgb(255,182,85)" fill-rule="evenodd" stroke="none" stroke-width="1"/><path id="activity-fill-22" d="M14,15.693493L12.921638,16.931468C12.771780,17.103186,12.455019,16.941087,12.214489,16.569426L12,16.237660L13.078362,15L13.292732,15.331451C13.533262,15.703269,13.850024,15.865368,14,15.693493" fill="rgb(255,152,17)" fill-rule="evenodd" stroke="none" stroke-width="1"/></g></g></g><g id="activity-leg1a"><path id="activity-fill-46" d="M17.960782,8.521130C17.960782,8.521130,17.460508,9.448868,16.251947,11.694237L15.128132,13.783145C15.038167,13.976695,14.817729,14.056321,14.636805,13.957420L8.519942,11.149080C8.271794,11.035156,7.999290,10.997270,7.731880,11.037150C7.603643,11.056160,7.475282,11.071979,7.347417,11.085006C3.462776,11.477557,3.161319,10.715851,1.340898,8.079394C1.310082,8.032734,1.280632,7.984746,1.251058,7.933965C1.235649,7.907910,1.220241,7.880393,1.204833,7.851680C1.197129,7.837855,1.189424,7.824296,1.182963,7.810338C0.594091,6.712578,0.195089,4.781462,0.042497,3.492811C0.025846,3.348712,0.011681,3.211525,0,3.085106L2.264405,2.308379L8.992009,0L9.429531,2.191797L17.820988,7.991658C17.987746,8.105316,18.046646,8.331700,17.960782,8.521130" fill="rgb(150,80,40)" fill-rule="evenodd" stroke="none" stroke-width="1"/><path id="activity-fill-48" d="M16,10.830695L14.893590,12.796018C14.805141,12.978118,14.587994,13.053034,14.409873,12.959858L8.387745,10.317666C8.143439,10.210607,7.875156,10.174963,7.611888,10.212483C7.485637,10.230368,7.359264,10.245251,7.233379,10.257508C3.408901,10.626834,3.112114,9.910193,1.319887,7.429714C0.641899,6.447678,0.194025,4.323643,0.041717,3.114358C0.025324,2.978784,0.011377,2.849714,0,2.730774L2.229212,2C2.574078,3.119486,3.138538,4.764509,3.465666,5.235891L4.265133,6.386394C5.929764,8.054680,8.153960,8.966303,10.443851,8.966303L10.460244,8.966303C11.661342,8.963551,12.849962,9.223193,13.924809,9.771868L16,10.830695Z" fill="rgb(128,57,27)" fill-rule="evenodd" stroke="none" stroke-width="1"/></g></g></g></g><g id="activity-head" transform="matrix(1 0 0 1 13 0.50000000000000)"><polygon id="activity-fill-50" points="6,11.237810 2.092855,12 2,6.393235 5.156409,6" fill="rgb(255,175,130)" fill-rule="evenodd" stroke="none" stroke-width="1"/><polygon id="activity-fill-52" points="2.922833,7 3,11.603826 2.080572,12 2,7.114851" fill="rgb(255,155,105)" fill-rule="evenodd" stroke="none" stroke-width="1"/><path id="activity-fill-58" d="M9.644329,7.585313C9.461980,7.651414,9.141655,7.637381,9.141655,7.637381C9.141655,7.637381,8.430061,9.007395,8.210082,9.354268C7.924690,9.804169,7.534770,9.994716,7.083617,9.999885C6.117247,10.011333,4.876543,9.163722,3.822505,8.183910L3.821157,8.183910C3.350447,7.746687,2.676483,7.969114,2.304771,7.603162C1.463699,6.777092,0.998654,5.653754,1,4.563283C1,4.512446,1.001352,4.462839,1.004184,4.412002C1.004184,4.395508,1.004184,4.379014,1.005533,4.361166C1.008365,4.310329,1.012546,4.258261,1.018076,4.207424C1.016727,4.203608,1.018076,4.199792,1.019425,4.194745C1.023606,4.138861,1.030619,4.082855,1.038981,4.028325C1.040330,4.020693,1.040330,4.013061,1.043163,4.005430C1.048692,3.957178,1.057055,3.908803,1.066900,3.860550C1.087806,3.753830,1.114241,3.648340,1.144857,3.544081C1.153219,3.517370,1.161582,3.490659,1.169944,3.464071C1.221466,3.302698,1.285531,3.145140,1.362139,2.992629C1.554334,2.607597,1.825835,2.254323,2.183655,1.950532C3.899248,0.497924,6.925006,0.775004,8.517999,2.340734C9.070846,2.885908,9.587413,4.113504,9.258860,5.281401C9.185084,5.547034,9.672383,6.397230,9.939838,6.878889C10.088603,7.148091,9.950763,7.473423,9.644329,7.585313" fill="rgb(255,175,130)" fill-rule="evenodd" stroke="none" stroke-width="1"/><path id="activity-fill-60" d="M7,9.999885C6.046912,10.011321,4.823262,9.164601,3.783711,8.185820L3.782381,8.185820C3.318141,7.749057,2.653441,7.971250,2.286838,7.605683C1.457325,6.780482,0.998673,5.658326,1,4.569001C1,4.518218,1.001333,4.468664,1.004126,4.417880C1.004126,4.401403,1.004126,4.384926,1.005457,4.367097C1.008250,4.316313,1.012374,4.264300,1.017828,4.213517C1.016497,4.209705,1.017828,4.205893,1.019158,4.200852C1.023281,4.145027,1.030198,4.089079,1.038446,4.034606C1.039776,4.026983,1.039776,4.019359,1.042569,4.011735C1.048023,3.963534,1.056270,3.915210,1.065981,3.867008C1.086599,3.760400,1.112671,3.655021,1.142866,3.550872C1.151114,3.524189,1.159361,3.497506,1.167608,3.470946C1.218422,3.309743,1.281606,3.152351,1.357161,3C1.200597,4.415544,1.741722,5.942738,2.832086,7.030710C3.260544,7.458497,4.036449,7.196956,4.580367,7.708603C5.372634,8.452280,6.196560,9.349906,7,9.999885" fill="rgb(255,155,105)" fill-rule="evenodd" stroke="none" stroke-width="1"/><path id="activity-fill-62" d="M5.995395,3.471154C5.978524,3.812167,5.915826,4.138760,5.813883,4.444077C5.763988,4.593602,5.560340,4.625872,5.468447,4.497268C5.301532,4.263936,5.076826,4.140415,4.861452,4.193488C4.616285,4.253889,4.326009,4.613579,4.394689,5.243479C4.407253,5.358962,4.370400,5.474091,4.288917,5.557897C3.880065,5.978815,3.128650,6.735900,2.645615,6.858003C2.023304,7.015449,2.329853,7.002801,1.805418,6.997127C0.430615,6.643821,-0.072283,4.806012,0.008243,3.181322C0.099299,1.345759,1.513467,-0.076806,3.167059,0.003217C4.819574,0.083358,6.086330,1.635472,5.995395,3.471154" fill="rgb(170,100,50)" fill-rule="evenodd" stroke="none" stroke-width="1"/><path id="activity-fill-64" d="M2.242037,3.521267C1.863415,4.702746,1.995177,5.909400,2.517963,6.944908C2.291384,7.010033,2.377546,7.001287,1.949448,6.997150C0.464540,6.643274,-0.078139,4.806403,0.008927,3.181693C0.106586,1.346122,1.633994,-0.076475,3.419371,0.003189C4.002871,0.030019,4.541933,0.212867,5,0.513792C3.709377,1.098267,2.679178,2.157177,2.242037,3.521267" fill="rgb(150,80,40)" fill-rule="evenodd" stroke="none" stroke-width="1"/><path id="activity-fill-86" d="M7.500000,5C7.776111,5,8,5.223889,8,5.500000C8,5.776111,7.776111,6,7.500000,6C7.223889,6,7,5.776111,7,5.500000C7,5.223889,7.223889,5,7.500000,5" fill="rgb(186,103,70)" fill-rule="evenodd" stroke="none" stroke-width="1"/><g id="activity-group-68"><g id="activity-g4" mask="url(#activity-mask-7)"><path id="activity-fill-66" d="M8.803440,3.893150L0.299229,4.942606C0.065040,4.978447,0.087272,4.757545,0.067187,4.503255C-0.081486,2.615978,0.346219,0.307202,2.597924,-0.038256C7.370387,-1.122462,8.136366,1.260312,8.772493,2.896160C8.814429,3.004227,11.862682,2.675122,11.892619,2.785777C11.904998,2.831702,12.057587,3.378984,11.502429,3.479146C10.497587,3.660528,8.803440,3.893150,8.803440,3.893150" fill="rgb(70,165,205)" fill-rule="evenodd" stroke="none" stroke-width="1"/><path id="activity-fill-84" d="M1.940028,2.419369C1.735080,3.216779,1.649927,4.021240,1.673257,4.809204L0.238382,4.996251C0.022351,5.031239,0.042415,4.816122,0.024568,4.568411C-0.112959,2.726147,0.282008,0.472140,2.361824,0.134365C2.583803,0.081151,2.796218,0.036318,3,0C2.535861,0.707878,2.171106,1.520454,1.940028,2.419369" fill="rgb(65,145,190)" fill-rule="evenodd" stroke="none" stroke-width="1"/><mask id="activity-mask-7" mask-type="luminance"><use id="activity-use2" width="11.880333" height="4.946567" xlink:href="#activity-path-6" fill="rgb(255,255,255)" fill-rule="evenodd" stroke="none" stroke-width="1"/></mask></g></g></g><g id="activity-body" transform="matrix(1 0 0 1 5 11.50000000000000)"><g id="activity-group-5" transform="matrix(1 0 0 1 8 0)"><path id="activity-fill-54" d="M12.676019,18.903192C11.558204,19.282722,8.401096,20.340577,5.631116,21.129958C4.263885,21.519848,2.991984,21.843281,2.104571,21.989458C1.664232,22.061347,1.253997,21.757243,1.221252,21.330715L0.023027,3.477546C-0.136472,2.064923,0.545096,0.755269,1.680604,0C1.856476,0.014403,2.017296,0.026026,2.165836,0.037776C2.503848,0.062539,2.780595,0.080858,3.028690,0.096525C3.070942,0.099178,3.114513,0.101705,3.155445,0.104358C3.216841,0.107011,3.276785,0.110928,3.336730,0.114844C3.344916,0.116108,3.353102,0.116108,3.361288,0.116108C3.418592,0.120024,3.475763,0.122677,3.533067,0.126594C3.629849,0.131774,3.725311,0.137080,3.823414,0.142260C3.868438,0.144914,3.912010,0.147440,3.957034,0.150094C3.978820,0.151357,4.000606,0.152747,4.022524,0.154010C4.090654,0.157927,4.160237,0.161843,4.232461,0.165760C4.246060,0.167023,4.261112,0.168413,4.276033,0.168413C4.405560,0.176246,4.544593,0.185343,4.697227,0.195829C4.823981,0.204926,4.958922,0.214149,5.106142,0.224509C5.253362,0.234869,5.411541,0.246745,5.584639,0.261021C5.618705,0.263674,5.652770,0.266201,5.688288,0.268854C8.711776,0.510166,12.202935,15.477952,12.984059,18.348933C13.048228,18.582285,12.913288,18.822334,12.676019,18.903192" fill="rgb(135,175,185)" fill-rule="evenodd" stroke="none" stroke-width="1"/><path id="activity-fill-56" d="M5,21.129861C3.786004,21.519877,2.656653,21.843185,1.868698,21.989489C1.477711,22.061251,1.113453,21.757273,1.084378,21.330744L0.020446,3.477550C-0.121177,2.064926,0.484004,0.755270,1.492248,0C1.648409,0.014403,1.791204,0.026026,1.923097,0.037776C2.223225,0.063802,2.468955,0.082122,2.689245,0.096525C2.726761,0.099178,2.765449,0.101705,2.801793,0.104358C2.857481,0.108275,2.910707,0.112191,2.962761,0.114844C2.970029,0.116108,2.977298,0.116108,2.984567,0.116108C3.036620,0.120024,3.086212,0.122678,3.137093,0.126594C3.223028,0.131774,3.307791,0.137081,3.394899,0.142261C3.434877,0.144914,3.473565,0.147441,3.513543,0.150094C3.532887,0.151357,3.552232,0.152747,3.571693,0.154010C3.632188,0.157927,3.693972,0.161843,3.758101,0.165760C3.770177,0.167023,3.783542,0.168413,3.796790,0.168413C3.912972,0.177510,4.036423,0.185343,4.170778,0.195829C4.283326,0.204926,4.403143,0.214149,4.533863,0.224509C4.664583,0.236132,4.805034,0.248008,4.958732,0.261022C4.138068,1.035874,3.668414,2.216283,3.795500,3.477677L5,21.129861Z" fill="rgb(108,155,170)" fill-rule="evenodd" stroke="none" stroke-width="1"/></g><g id="activity-group-4"><path id="activity-fill-4" d="M11,22.030177L4.301474,23.963900C3.771991,24.116854,3.229453,23.768374,3.126611,23.209454L1.103394,16.642748C0.877511,15.909588,1.027033,15.107981,1.500106,14.514391L2.941988,12.705580C3.271945,12.291584,3.452503,11.771667,3.452503,11.234926L3.452503,5.760313C3.452503,5.348866,3.712503,4.985600,4.092957,4.865914L10.021092,3L11,22.030177Z" fill="rgb(130,205,100)" fill-rule="evenodd" stroke="none" stroke-width="1"/><path id="activity-fill-76" d="M9.348814,21L7.840376,19.619453L8.594657,20.309727L7.840002,19.619949C7.881151,19.575467,11.979258,15.098292,13.620371,9.466944C14.231253,7.371095,13.985978,5.129038,12.947392,3.315939C12.673561,2.837915,12.101335,2.037738,11.339323,2.037738C11.336829,2.037738,11.334584,2.037862,11.332090,2.037862C10.861740,2.040959,9.575634,2.394336,7.795735,5.600867L6,4.616816C7.693610,1.565661,9.482861,0.012390,11.318374,0C11.325606,0,11.332963,0,11.340071,0C12.673811,0,13.876869,0.819011,14.729784,2.308098C16.040456,4.596619,16.354064,7.412603,15.590181,10.033932C13.811030,16.138101,9.530245,20.804354,9.348814,21" fill="rgb(130,205,100)" fill-rule="evenodd" stroke="none" stroke-width="1"/><path id="activity-fill-88" d="M8,22.816459L3.552306,23.965324C2.981834,24.112445,2.399038,23.776608,2.288124,23.238311L0.111452,16.916792C-0.132109,16.211129,0.029426,15.439820,0.538279,14.868516L2.089751,13.126629C2.126722,13.086137,2.162236,13.043069,2.195099,13C3.310203,16.690037,5.322691,20.034544,8,22.816459" fill="rgb(100,165,75)" fill-rule="evenodd" stroke="none" stroke-width="1"/></g></g><g id="activity-arm1_tr" transform="translate(13,11.500000) rotate(0)"><g id="activity-arm1" transform="translate(0,0)"><path id="activity-fill-69" d="M22.597210,46.993301L22.597210,46.993301C22.330655,47.039687,22.073223,46.840314,22.019488,46.546283L15.017837,8.147870C14.919363,7.607828,15.238654,7.097202,15.728149,7.012098C16.217645,6.926993,16.688771,7.300095,16.776248,7.842022L22.992231,46.377331C23.039843,46.672242,22.863764,46.947040,22.597210,46.993301" fill="rgb(186,103,70)" fill-rule="evenodd" stroke="none" stroke-width="1"/><path id="activity-fill-78" d="M4.894866,16L2.059020,5.212904C1.811521,4.319747,2.365087,3.364920,3.295381,3.080523C4.225674,2.795994,5.180402,3.289486,5.427901,4.182776L8,13.888926L4.894866,16Z" fill="rgb(250,135,90)" fill-rule="evenodd" stroke="none" stroke-width="1"/><path id="activity-fill-80" d="M6.984462,7.091509L5.537558,1.989932C5.122351,0.526018,3.629173,-0.315379,2.202499,0.110704L1.939139,0.189459C0.512591,0.615542,-0.307329,2.147832,0.107878,3.611875L1.554781,8.713453C1.614584,8.924289,1.829521,9.045341,2.034975,8.984101L6.720722,7.584541C6.926176,7.522912,7.044265,7.302345,6.984462,7.091509" fill="rgb(70,115,140)" fill-rule="evenodd" stroke="none" stroke-width="1"/><path id="activity-fill-82" d="M17.895111,10.171747C18.183295,10.912144,17.857906,11.758842,17.160842,12.081847L6.871366,16.853457C5.779296,17.290838,4.556187,16.716047,4.139614,15.569776C3.722914,14.423504,4.270526,13.139690,5.362596,12.702441L16.060826,9.071940C16.761421,8.834187,17.518391,9.203393,17.796864,9.919035L17.895111,10.171747Z" fill="rgb(255,175,130)" fill-rule="evenodd" stroke="none" stroke-width="1"/></g></g></g></g></g></g><mask id="activity-mask-3" mask-type="luminance"><use id="activity-use3" width="64.350342" height="77.022041" xlink:href="#activity-path-2" fill="rgb(255,255,255)" fill-rule="evenodd" stroke="none" stroke-width="1"/></mask></g></g></g></svg>
