<svg id="agenda" xmlns="http://www.w3.org/2000/svg" xmlns:xlink="http://www.w3.org/1999/xlink" viewBox="0 0 70 78" shape-rendering="geometricPrecision" text-rendering="geometricPrecision"><style><![CDATA[]]></style><defs><path id="agenda-path-2" d="M50,0L59.339176,0C62.157824,0,64.442719,2.284895,64.442719,5.103398L64.793116,54.586681C64.793116,57.405185,62.508222,59.690079,59.689573,59.690079L46.931077,59.690079C46.128495,59.692681,45.373175,60.070341,44.889718,60.710759L34.861417,74.081778C34.374925,74.663950,33.655159,75.000419,32.896515,75.000419C32.137870,75.000419,31.418249,74.663950,30.931757,74.081778L20.903456,60.710759C20.419855,60.070341,19.664679,59.692681,18.862097,59.690079L6.103456,59.690079C3.284808,59.690079,1.000058,57.405185,1.000058,54.586681L0.649660,5.103398C0.649660,2.284895,2.934410,0,5.753059,0L50,0Z"/><polygon id="agenda-path-4" points="0.005457,0.081755 52.435580,0.081755 52.435580,57.390869 0.005457,57.390869"/><rect id="agenda-path-7" width="15.590900" height="14.500000" rx="0" ry="0"/><linearGradient id="agenda-fill-1-fill" x1="0" y1="0.056816" x2="1" y2="0.943184" spreadMethod="pad" gradientUnits="objectBoundingBox"><stop id="agenda-fill-1-fill-0" offset="0%" stop-color="rgb(185,147,214)"/><stop id="agenda-fill-1-fill-1" offset="100%" stop-color="rgb(140,166,219)"/></linearGradient><linearGradient id="agenda-fill-8-fill" x1="0.803685" y1="0.521643" x2="1" y2="0.535634" spreadMethod="pad" gradientUnits="objectBoundingBox"><stop id="agenda-fill-8-fill-0" offset="0%" stop-color="rgb(172,108,220)"/><stop id="agenda-fill-8-fill-1" offset="100%" stop-color="rgb(162,125,220)"/></linearGradient></defs><g id="agenda-agenda"><path id="agenda-path1" d="M62.598630,13.017700C65.512913,13.017700,67.875331,15.380119,67.875331,18.294252L67.875331,53.911346C67.875331,56.825479,65.512913,59.187897,62.598630,59.187897L49.407252,59.187897C48.577440,59.190587,47.796492,59.581061,47.296632,60.243207L36.928082,74.067891C36.425083,74.669816,35.680897,75.017700,34.896512,75.017700C34.112128,75.017700,33.368091,74.669816,32.865093,74.067891L22.496542,60.243207C21.996533,59.581061,21.215735,59.190587,20.385922,59.187897L7.194394,59.187897C4.280112,59.187897,1.917843,56.825479,1.917843,53.911346L1.917843,18.294252C1.917843,15.380119,4.280112,13.017700,7.194394,13.017700L62.598630,13.017700Z" fill="rgb(255,255,255)" stroke="none" stroke-width="1"/><path id="agenda-fill-1" d="M62,11L8.103456,11.034982C3.627990,11.034982,0.000058,14.662985,0.000058,19.138380L0.000058,53.586681L0.003773,53.834424C0.134716,58.195202,3.710869,61.690079,8.103456,61.690079L20.638000,61.690000L30.531760,74.881783L30.629719,75.005478C31.686198,76.269738,33.248951,77.000419,34.896515,77.000419C36.544067,77.000419,38.106969,76.269747,39.163456,75.005478L39.261414,74.881783L49.154000,61.690000L62,61.655098C66.475467,61.655098,70.103543,58.027093,70.103543,53.551699L70.103543,19.103398C70.103543,14.628005,66.475467,11,62,11ZM62,14C64.818648,14,67.103543,16.284895,67.103543,19.103398L67.103543,53.551699C67.103543,56.370203,64.818648,58.655098,62,58.655098L48.931077,58.690079C48.128495,58.692681,47.373175,59.070341,46.889718,59.710759L36.861417,73.081778C36.374925,73.663950,35.655159,74.000419,34.896515,74.000419C34.137870,74.000419,33.418249,73.663950,32.931757,73.081778L22.903456,59.710759C22.419855,59.070341,21.664679,58.692681,20.862097,58.690079L8.103456,58.690079C5.284808,58.690079,3.000058,56.405185,3.000058,53.586681L3.000058,19.138380C3.000058,16.319876,5.284808,14.034982,8.103456,14.034982L62,14Z" fill="url(#agenda-fill-1-fill)" stroke="none" stroke-width="1"/><g id="agenda-group" transform="matrix(1 0 0 1 2 0)"><g id="agenda-g1" mask="url(#agenda-mask-3)"><g id="agenda-group-75"><g id="agenda-g2" transform="matrix(0.95630500000000 -0.29237200000000 0.29237200000000 0.95630500000000 -1.90223000000000 12.99730000000000)"><g id="agenda-calendar_to" transform="translate(12.512624,70.579164)"><g id="agenda-calendar_tr" transform="rotate(0)"><g id="agenda-calendar_ts" transform="scale(1,1)"><g id="agenda-calendar" transform="translate(-14.969383,-69.430785)"><g id="agenda-group-3" transform="matrix(1 0 0 1 2.14544000000000 1.51560000000000)"><g id="agenda-g3" mask="url(#agenda-mask-5)"><path id="agenda-fill-12" d="M5.496480,4.961189L5.423535,4.961189C4.571387,4.961189,3.768853,5.163398,3.051869,5.513778C1.250223,6.393817,0.005457,8.238505,0.005457,10.379267L0.005457,11.252467L0.005457,11.252869L0.005457,18.958001L0.005457,19.831737L0.005457,53.720801C0.005457,55.747451,1.649412,57.390869,3.676062,57.390869L48.765069,57.390869C50.791719,57.390869,52.435673,55.747451,52.435673,53.720801L52.435673,19.831737L52.435673,18.958001L52.435673,11.252869L52.435673,11.252467L52.435673,10.379267C52.435673,8.321910,51.288928,6.532601,49.600053,5.615151C49.166269,5.379285,48.694939,5.204564,48.199473,5.095146C48.131221,5.079994,40.862958,5.066183,40.793633,5.053444L40.793633,1.465305C40.793633,0.701523,40.173998,0.081755,39.410217,0.081755C38.646301,0.081755,38.026667,0.701523,38.026667,1.465305L38.026667,4.961189L27.728082,4.961189L27.728082,1.465305C27.728082,0.701523,27.108448,0.081755,26.344667,0.081755C25.580751,0.081755,24.961117,0.701523,24.961117,1.465305L24.961117,4.961189L14.484326,4.961189L14.484326,1.465305C14.484326,0.701523,13.864692,0.081755,13.100776,0.081755C12.336994,0.081755,11.717226,0.701523,11.717226,1.465305L11.717226,4.961189L5.496480,4.961189Z" fill="rgb(16,15,15)" fill-opacity="0.3" fill-rule="evenodd" stroke="none" stroke-width="1"/><mask id="agenda-mask-5" mask-type="luminance"><use id="agenda-use1" width="52.430122" height="57.309113" xlink:href="#agenda-path-4" fill="rgb(255,255,255)" fill-rule="evenodd" stroke="none" stroke-width="1"/></mask></g></g><path id="agenda-fill-4" d="M3.670430,57.308778C1.643512,57.308778,0.000362,55.665628,0.000362,53.638710L0.000362,10.296908C0.000362,7.304803,2.425933,4.879233,5.418037,4.879233L47.012098,4.879233C50.004337,4.879233,52.429907,7.304803,52.429907,10.296908L52.429907,53.638710C52.429907,55.665628,50.786758,57.308778,48.759839,57.308778L3.670430,57.308778Z" fill="rgb(248,244,244)" fill-rule="evenodd" stroke="rgb(151,151,151)" stroke-width="0.500000"/><path id="agenda-fill-6" d="M47.012139,4.879300L5.418077,4.879300C2.425705,4.879300,-0,7.304602,-0,10.296975L-0,18.876111L52.430216,18.876111L52.430216,10.296975C52.430216,7.304602,50.004377,4.879300,47.012139,4.879300" fill="rgb(172,108,221)" fill-rule="evenodd" stroke="none" stroke-width="1"/><path id="agenda-fill-8" d="M47.012139,5.753050L5.418077,5.753050C2.425705,5.753050,-0,8.178352,-0,11.170591L-0,19.749861L52.430216,19.749861L52.430216,11.170591C52.430216,8.178352,50.004377,5.753050,47.012139,5.753050" fill="url(#agenda-fill-8-fill)" fill-rule="evenodd" stroke="none" stroke-width="1"/><path id="agenda-fill-10" d="M47.012139,4.879300L5.418077,4.879300C2.425705,4.879300,-0,7.304602,-0,10.296975L-0,11.170577C-0,8.178339,2.425705,5.753036,5.418077,5.753036L47.012139,5.753036C50.004377,5.753036,52.430216,8.178339,52.430216,11.170577L52.430216,10.296975C52.430216,7.304602,50.004377,4.879300,47.012139,4.879300" fill="rgb(117,49,168)" fill-rule="evenodd" stroke="none" stroke-width="1"/><path id="agenda-fill-12" d="M15.068962,7.617222C15.068962,6.587672,14.234380,5.753090,13.204830,5.753090C12.175280,5.753090,11.340564,6.587672,11.340564,7.617222C11.340564,8.646772,12.175280,9.481354,13.204830,9.481354C14.234380,9.481354,15.068962,8.646772,15.068962,7.617222" fill="rgb(117,49,168)" fill-rule="evenodd" stroke="none" stroke-width="1"/><path id="agenda-fill-14" d="M28.312276,7.617222C28.312276,6.587672,27.477694,5.753090,26.448145,5.753090C25.418595,5.753090,24.584013,6.587672,24.584013,7.617222C24.584013,8.646772,25.418595,9.481354,26.448145,9.481354C27.477694,9.481354,28.312276,8.646772,28.312276,7.617222" fill="rgb(117,49,168)" fill-rule="evenodd" stroke="none" stroke-width="1"/><path id="agenda-fill-16" d="M41.555591,7.617222C41.555591,6.587672,40.721009,5.753090,39.691459,5.753090C38.661909,5.753090,37.827327,6.587672,37.827327,7.617222C37.827327,8.646772,38.661909,9.481354,39.691459,9.481354C40.721009,9.481354,41.555591,8.646772,41.555591,7.617222" fill="rgb(117,49,168)" fill-rule="evenodd" stroke="none" stroke-width="1"/><path id="agenda-fill-18" d="M13.204522,8.709339C12.440606,8.709339,11.820972,8.089570,11.820972,7.325789L11.820972,1.383550C11.820972,0.619634,12.440606,-0,13.204522,-0C13.968304,-0,14.588072,0.619634,14.588072,1.383550L14.588072,7.325789C14.588072,8.089570,13.968304,8.709339,13.204522,8.709339" fill="rgb(58,58,58)" fill-rule="evenodd" stroke="none" stroke-width="1"/><path id="agenda-fill-20" d="M26.448292,8.709339C25.684376,8.709339,25.064742,8.089570,25.064742,7.325789L25.064742,1.383550C25.064742,0.619634,25.684376,-0,26.448292,-0C27.212074,-0,27.831842,0.619634,27.831842,1.383550L27.831842,7.325789C27.831842,8.089570,27.212074,8.709339,26.448292,8.709339" fill="rgb(58,58,58)" fill-rule="evenodd" stroke="none" stroke-width="1"/><path id="agenda-fill-22" d="M39.691150,8.709339C38.927369,8.709339,38.307600,8.089570,38.307600,7.325789L38.307600,1.383550C38.307600,0.619634,38.927369,-0,39.691150,-0C40.455066,-0,41.074700,0.619634,41.074700,1.383550L41.074700,7.325789C41.074700,8.089570,40.455066,8.709339,39.691150,8.709339" fill="rgb(58,58,58)" fill-rule="evenodd" stroke="none" stroke-width="1"/><path id="agenda-fill-24" d="M27.846230,28.035580L25.049898,28.035580C24.149075,28.035580,23.418816,27.305321,23.418816,26.404498L23.418816,23.608166C23.418816,22.707343,24.149075,21.977084,25.049898,21.977084L27.846230,21.977084C28.747053,21.977084,29.477446,22.707343,29.477446,23.608166L29.477446,26.404498C29.477446,27.305321,28.747053,28.035580,27.846230,28.035580" fill="rgb(195,192,192)" fill-rule="evenodd" stroke="none" stroke-width="1"/><path id="agenda-fill-26" d="M37.924328,28.035580L35.128131,28.035580C34.227308,28.035580,33.496915,27.305321,33.496915,26.404498L33.496915,23.608166C33.496915,22.707343,34.227308,21.977084,35.128131,21.977084L37.924328,21.977084C38.825151,21.977084,39.555544,22.707343,39.555544,23.608166L39.555544,26.404498C39.555544,27.305321,38.825151,28.035580,37.924328,28.035580" fill="rgb(195,192,192)" fill-rule="evenodd" stroke="none" stroke-width="1"/><path id="agenda-fill-28" d="M48.002494,28.035580L45.206162,28.035580C44.305339,28.035580,43.575080,27.305321,43.575080,26.404498L43.575080,23.608166C43.575080,22.707343,44.305339,21.977084,45.206162,21.977084L48.002494,21.977084C48.903317,21.977084,49.633710,22.707343,49.633710,23.608166L49.633710,26.404498C49.633710,27.305321,48.903317,28.035580,48.002494,28.035580" fill="rgb(51,65,146)" fill-rule="evenodd" stroke="none" stroke-width="1"/><path id="agenda-fill-30" d="M7.689980,36.686468L4.893648,36.686468C3.992959,36.686468,3.262566,35.956209,3.262566,35.055252L3.262566,32.259054C3.262566,31.358232,3.992959,30.627973,4.893648,30.627973L7.689980,30.627973C8.590802,30.627973,9.321195,31.358232,9.321195,32.259054L9.321195,35.055252C9.321195,35.956209,8.590802,36.686468,7.689980,36.686468" fill="rgb(195,192,192)" fill-rule="evenodd" stroke="none" stroke-width="1"/><path id="agenda-fill-32" d="M17.768132,36.686468L14.971800,36.686468C14.070977,36.686468,13.340718,35.956209,13.340718,35.055252L13.340718,32.259054C13.340718,31.358232,14.070977,30.627973,14.971800,30.627973L17.768132,30.627973C18.668954,30.627973,19.399213,31.358232,19.399213,32.259054L19.399213,35.055252C19.399213,35.956209,18.668954,36.686468,17.768132,36.686468" fill="rgb(195,192,192)" fill-rule="evenodd" stroke="none" stroke-width="1"/><path id="agenda-fill-34" d="M27.846230,36.686468L25.049898,36.686468C24.149075,36.686468,23.418816,35.956209,23.418816,35.055252L23.418816,32.259054C23.418816,31.358232,24.149075,30.627973,25.049898,30.627973L27.846230,30.627973C28.747053,30.627973,29.477446,31.358232,29.477446,32.259054L29.477446,35.055252C29.477446,35.956209,28.747053,36.686468,27.846230,36.686468" fill="rgb(195,192,192)" fill-rule="evenodd" stroke="none" stroke-width="1"/><path id="agenda-fill-36" d="M37.924328,36.686468L35.128131,36.686468C34.227308,36.686468,33.496915,35.956209,33.496915,35.055252L33.496915,32.259054C33.496915,31.358232,34.227308,30.627973,35.128131,30.627973L37.924328,30.627973C38.825151,30.627973,39.555544,31.358232,39.555544,32.259054L39.555544,35.055252C39.555544,35.956209,38.825151,36.686468,37.924328,36.686468" fill="rgb(195,192,192)" fill-rule="evenodd" stroke="none" stroke-width="1"/><path id="agenda-fill-38" d="M48.002494,36.686468L45.206162,36.686468C44.305339,36.686468,43.575080,35.956209,43.575080,35.055252L43.575080,32.259054C43.575080,31.358232,44.305339,30.627973,45.206162,30.627973L48.002494,30.627973C48.903317,30.627973,49.633710,31.358232,49.633710,32.259054L49.633710,35.055252C49.633710,35.956209,48.903317,36.686468,48.002494,36.686468" fill="rgb(51,65,146)" fill-rule="evenodd" stroke="none" stroke-width="1"/><path id="agenda-fill-40" d="M7.689980,45.337370L4.893648,45.337370C3.992959,45.337370,3.262566,44.607111,3.262566,43.706154L3.262566,40.909956C3.262566,40.009134,3.992959,39.278875,4.893648,39.278875L7.689980,39.278875C8.590802,39.278875,9.321195,40.009134,9.321195,40.909956L9.321195,43.706154C9.321195,44.607111,8.590802,45.337370,7.689980,45.337370" fill="rgb(195,192,192)" fill-rule="evenodd" stroke="none" stroke-width="1"/><path id="agenda-fill-42" d="M17.768132,45.337370L14.971800,45.337370C14.070977,45.337370,13.340718,44.607111,13.340718,43.706154L13.340718,40.909956C13.340718,40.009134,14.070977,39.278875,14.971800,39.278875L17.768132,39.278875C18.668954,39.278875,19.399213,40.009134,19.399213,40.909956L19.399213,43.706154C19.399213,44.607111,18.668954,45.337370,17.768132,45.337370" fill="rgb(195,192,192)" fill-rule="evenodd" stroke="none" stroke-width="1"/><path id="agenda-fill-44" d="M27.846230,45.337370L25.049898,45.337370C24.149075,45.337370,23.418816,44.607111,23.418816,43.706154L23.418816,40.909956C23.418816,40.009134,24.149075,39.278875,25.049898,39.278875L27.846230,39.278875C28.747053,39.278875,29.477446,40.009134,29.477446,40.909956L29.477446,43.706154C29.477446,44.607111,28.747053,45.337370,27.846230,45.337370" fill="rgb(195,192,192)" fill-rule="evenodd" stroke="none" stroke-width="1"/><path id="agenda-fill-46" d="M37.924328,45.337370L35.128131,45.337370C34.227308,45.337370,33.496915,44.607111,33.496915,43.706154L33.496915,40.909956C33.496915,40.009134,34.227308,39.278875,35.128131,39.278875L37.924328,39.278875C38.825151,39.278875,39.555544,40.009134,39.555544,40.909956L39.555544,43.706154C39.555544,44.607111,38.825151,45.337370,37.924328,45.337370" fill="rgb(195,192,192)" fill-rule="evenodd" stroke="none" stroke-width="1"/><path id="agenda-fill-48" d="M48.002494,45.337370L45.206162,45.337370C44.305339,45.337370,43.575080,44.607111,43.575080,43.706154L43.575080,40.909956C43.575080,40.009134,44.305339,39.278875,45.206162,39.278875L48.002494,39.278875C48.903317,39.278875,49.633710,40.009134,49.633710,40.909956L49.633710,43.706154C49.633710,44.607111,48.903317,45.337370,48.002494,45.337370" fill="rgb(51,65,146)" fill-rule="evenodd" stroke="none" stroke-width="1"/><path id="agenda-fill-50" d="M7.689980,53.988258L4.893648,53.988258C3.992959,53.988258,3.262566,53.257999,3.262566,52.357042L3.262566,49.560845C3.262566,48.660022,3.992959,47.929629,4.893648,47.929629L7.689980,47.929629C8.590802,47.929629,9.321195,48.660022,9.321195,49.560845L9.321195,52.357042C9.321195,53.257999,8.590802,53.988258,7.689980,53.988258" fill="rgb(195,192,192)" fill-rule="evenodd" stroke="none" stroke-width="1"/><path id="agenda-fill-52" d="M17.768132,53.988258L14.971800,53.988258C14.070977,53.988258,13.340718,53.257999,13.340718,52.357042L13.340718,49.560845C13.340718,48.660022,14.070977,47.929629,14.971800,47.929629L17.768132,47.929629C18.668954,47.929629,19.399213,48.660022,19.399213,49.560845L19.399213,52.357042C19.399213,53.257999,18.668954,53.988258,17.768132,53.988258" fill="rgb(195,192,192)" fill-rule="evenodd" stroke="none" stroke-width="1"/><path id="agenda-fill-54" d="M27.846230,53.988258L25.049898,53.988258C24.149075,53.988258,23.418816,53.257999,23.418816,52.357042L23.418816,49.560845C23.418816,48.660022,24.149075,47.929629,25.049898,47.929629L27.846230,47.929629C28.747053,47.929629,29.477446,48.660022,29.477446,49.560845L29.477446,52.357042C29.477446,53.257999,28.747053,53.988258,27.846230,53.988258" fill="rgb(195,192,192)" fill-rule="evenodd" stroke="none" stroke-width="1"/><path id="agenda-fill-56" d="M46.371345,47.463703C44.359981,47.208260,43.199827,48.505321,43.400293,50.522049C43.924588,55.794101,43.082229,57.308524,43.082229,57.308524L52.430243,47.347178C52.430243,47.347178,50.041413,47.929669,46.371345,47.463703" fill="rgb(221,221,221)" fill-rule="evenodd" stroke="none" stroke-width="1"/><path id="agenda-fill-58" d="M46.371667,47.784006C49.200046,48.143504,51.261828,47.880015,52.060876,47.740293L52.430162,47.347138C52.430162,47.347138,50.041333,47.929495,46.371667,47.463797C44.509814,47.227395,43.392971,48.328952,43.392971,50.091711C43.519956,48.515070,44.622451,47.561952,46.371667,47.784006" fill="rgb(239,239,239)" fill-rule="evenodd" stroke="none" stroke-width="1"/><path id="agenda-fill-60" d="M43.569435,53.901971C43.543287,56.473566,43.082149,57.308551,43.082149,57.308551L43.261428,57.117605C43.403699,56.584325,43.575737,55.578644,43.569435,53.901971" fill="rgb(234,234,234)" fill-rule="evenodd" stroke="none" stroke-width="1"/><path id="agenda-fill-62" d="M43.082189,57.308577L43.082189,57.308577L48.759598,57.308577C50.787187,57.308577,52.430203,55.665695,52.430203,53.638911L52.430203,47.347634L43.082189,57.308577Z" fill="rgb(157,153,153)" fill-rule="evenodd" stroke="none" stroke-width="1"/><path id="agenda-fill-64" d="M52.430176,47.347621L43.082162,57.308564C48.196658,54.206371,52.430176,47.347621,52.430176,47.347621" fill="rgb(239,239,239)" fill-rule="evenodd" stroke="none" stroke-width="1"/><g id="agenda-group-72" transform="matrix(1 0 0 1 12.33640000000000 1.38151000000000)"><path id="agenda-fill-66" d="M0.286244,5.592100C0.159260,5.592100,0.055607,5.488448,0.055607,5.361464L0.055607,0.351425C0.055607,0.224441,0.159260,0.120923,0.286244,0.120923C0.413228,0.120923,0.516880,0.224441,0.516880,0.351425L0.516880,5.361464C0.516880,5.488448,0.413228,5.592100,0.286244,5.592100" fill="rgb(255,255,255)" fill-rule="evenodd" stroke="none" stroke-width="1"/><path id="agenda-fill-68" d="M13.529156,5.592100C13.402172,5.592100,13.298519,5.488448,13.298519,5.361464L13.298519,0.351425C13.298519,0.224441,13.402172,0.120923,13.529156,0.120923C13.656140,0.120923,13.759792,0.224441,13.759792,0.351425L13.759792,5.361464C13.759792,5.488448,13.656140,5.592100,13.529156,5.592100" fill="rgb(255,255,255)" fill-rule="evenodd" stroke="none" stroke-width="1"/><path id="agenda-fill-70" d="M26.772926,5.592100C26.645942,5.592100,26.542290,5.488448,26.542290,5.361464L26.542290,0.351425C26.542290,0.224441,26.645942,0.120923,26.772926,0.120923C26.899910,0.120923,27.003563,0.224441,27.003563,0.351425L27.003563,5.361464C27.003563,5.488448,26.899910,5.592100,26.772926,5.592100" fill="rgb(255,255,255)" fill-rule="evenodd" stroke="none" stroke-width="1"/></g></g></g></g></g><g id="agenda-mark" transform="matrix(1 0 0 1 18.86180000000000 34.54720000000000)"><g id="agenda-g4_to" transform="translate(5.685471,8.676074)"><g id="agenda-g4" transform="translate(-8.037939,-7.978680)" mask="url(#agenda-mask-8)"><path id="agenda-fill-73" d="M12.397765,5.427291C10.915078,1.978831,6.880729,1.099195,3.744790,2.940531C0.558432,4.811546,0.065693,9.254067,2.690656,11.848637C5.134865,14.264598,9.294008,14.559955,12.247941,12.963558C16.594275,10.614643,15.310220,6.059128,12.544014,2.979864C11.881068,2.242185,9.326011,3.229273,10.070305,4.057598C11.494529,5.642910,13.063572,7.783358,12.360578,10.060401C11.489881,12.879707,7.873359,12.711467,5.853235,11.334801C4.225014,10.225064,3.350384,8.187776,3.771608,6.248643C4.540038,2.712040,8.480523,3.249298,9.724887,6.143337C10.150581,7.133285,12.786093,6.330349,12.397765,5.427291" fill="rgb(172,108,221)" fill-rule="evenodd" stroke="none" stroke-width="1"/><mask id="agenda-mask-8" mask-type="luminance"><g id="agenda-use2_to" transform="translate(14.316689,1.527558)"><g id="agenda-use2_tr" transform="rotate(-184.724064)"><use id="agenda-use2" width="15.590855" height="14.500000" xlink:href="#agenda-path-7" transform="scale(0.966776,1.018848) translate(-0.635199,-13.816409)" fill="rgb(255,255,255)" fill-rule="evenodd" stroke="none" stroke-width="1"/></g></g></mask></g></g></g></g></g><mask id="agenda-mask-3" mask-type="luminance"><use id="agenda-use3" width="64.143456" height="75.000420" xlink:href="#agenda-path-2" transform="matrix(1 0 0 1 -0.01996611000000 -0.56612388500004)" fill="rgb(255,255,255)" fill-rule="evenodd" stroke="none" stroke-width="1"/></mask></g></g></g></svg>
