<svg id="association" xmlns="http://www.w3.org/2000/svg" xmlns:xlink="http://www.w3.org/1999/xlink" viewBox="0 0 70 78"
     shape-rendering="geometricPrecision" text-rendering="geometricPrecision">
  <style>
    <![CDATA[]]></style>
  <defs>
    <path id="association-path-2"
          d="M50,0L59.339176,0C62.157824,0,64.442719,2.284895,64.442719,5.103398L64.793116,54.586681C64.793116,57.405185,62.508222,59.690079,59.689573,59.690079L46.931077,59.690079C46.128495,59.692681,45.373175,60.070341,44.889718,60.710759L34.861417,74.081778C34.374925,74.663950,33.655159,75.000419,32.896515,75.000419C32.137870,75.000419,31.418249,74.663950,30.931757,74.081778L20.903456,60.710759C20.419855,60.070341,19.664679,59.692681,18.862097,59.690079L6.103456,59.690079C3.284808,59.690079,1.000058,57.405185,1.000058,54.586681L0.649660,5.103398C0.649660,2.284895,2.934410,0,5.753059,0L50,0Z"/>
    <polygon id="association-path-4"
             points="0.035785,0.111949 43.605492,0.111949 43.605492,62.241332 0.035785,62.241332"/>
    <linearGradient id="association-bg-fill" x1="0" y1="0.051368" x2="1" y2="0.948632" spreadMethod="pad"
                    gradientUnits="objectBoundingBox">
      <stop id="association-bg-fill-0" offset="0%" stop-color="rgb(228,50,16)"/>
      <stop id="association-bg-fill-1" offset="100%" stop-color="rgb(240,95,25)"/>
    </linearGradient>
  </defs>
  <g id="association-association">
    <path id="association-border"
          d="M62.693288,13.034982C65.511937,13.034982,68.003715,15.181496,68.003715,18L68.003715,55C68.003715,57.818504,65.580859,60,62.762211,60L49.003715,60C48.201133,60.002602,47.445812,60.380262,46.962355,61.020680L36.934055,74.391699C36.447562,74.973871,35.727797,75.310340,34.969152,75.310340C34.210508,75.310340,33.490887,74.973871,33.004394,74.391699L22.976094,61.020680C22.492492,60.380262,21.737316,60.002602,20.934734,60L7.176094,60C4.357445,60,2.072695,57.715105,2.072695,54.896602L2.003773,18.138380C2.003773,15.319876,4.288523,13.034982,7.107171,13.034982L62.693288,13.034982Z"
          fill="rgb(255,255,255)" stroke="none" stroke-width="1"/>
    <path id="association-bg"
          d="M62,11L8.103456,11.034982C3.627990,11.034982,0.000058,14.662985,0.000058,19.138380L-0.003715,53.752256L-0,54C0.130944,58.360778,3.521296,62,7.913883,62L20.448427,61.999921L30.342187,75.191703L30.440145,75.315399C31.496625,76.579659,33.059377,77.310340,34.706941,77.310340C36.354494,77.310340,37.917395,76.579668,38.973882,75.315399L39.071841,75.191703L48.964427,61.999921L61.896457,62.103398C66.371924,62.103398,70,58.475394,70,54L70,19C70,14.524606,66.475467,11,62,11ZM61.689573,14.034982C64.508222,14.034982,67,16.181496,67,19L67,54C67,56.818504,64.577145,59,61.758496,59L49,59C48.197418,59.002602,47.442098,59.380262,46.958641,60.020680L36.930340,73.391699C36.443848,73.973871,35.724082,74.310340,34.965438,74.310340C34.206793,74.310340,33.487172,73.973871,33.000680,73.391699L22.972379,60.020680C22.488777,59.380262,21.733602,59.002602,20.931020,59L8.172379,59C5.353730,59,3.068980,56.715105,3.068980,53.896602L3.000058,19.138380C3.000058,16.319876,5.284808,14.034982,8.103456,14.034982L61.689573,14.034982Z"
          fill="url(#association-bg-fill)" stroke="none" stroke-width="1"/>
    <g id="association-inside" transform="matrix(1 0 0 1 2 0)">
      <g id="association-g1" mask="url(#association-mask-3)">
        <g id="association-hands">
          <g id="association-g2" transform="matrix(1 0 0 1 0.76980800000000 2.50000000000000)">
            <g id="association-hand1_to" transform="translate(0.000012,74.810340)">
              <g id="association-hand1_tr" transform="rotate(0)">
                <g id="association-hand1" transform="translate(-0.000061,-74.809913)">
                  <path id="association-fill-1"
                        d="M40.926578,17.427913L38.599365,19.242053C36.768627,20.669143,35.120348,22.302299,33.681824,24.103774C32.244406,25.906602,31.967643,29.228610,30.983668,31.330577C30.112684,33.190086,28.592275,33.824266,28.339734,35.861930L13.936414,74.897340C10.653504,73.320741,5.988135,75.466110,3.532193,72.997258C2.916209,72.377340,2.326660,71.733323,1.767111,71.069143C1.141783,70.325905,0.551988,69.555250,0.000061,68.760987L13.441168,33.527831C13.543709,32.700495,13.218258,31.887176,12.600062,31.327381C12.597848,31.324676,12.594529,31.321725,12.591209,31.318774L12.589980,31.318774L2.429201,22.063774C2.250922,21.901725,2.094652,21.723815,1.959283,21.536069C1.069365,20.299553,1.107357,18.583405,2.120717,17.383405C2.147152,17.350823,2.178627,17.316274,2.207275,17.285045C2.849816,16.579307,3.720922,16.207749,4.605061,16.180946C5.452070,16.154635,6.309283,16.445413,6.986250,17.060782L12.197397,21.808528C12.199857,21.718405,12.203914,21.625946,12.202807,21.534102C12.218545,20.997176,12.218299,20.459389,12.203053,19.922340C12.148709,17.891192,11.898012,15.865454,11.449857,13.872422L10.413996,9.264102L9.628709,5.773405C9.510061,5.240782,9.522602,4.709635,9.646168,4.212053C9.947398,3.011684,10.897684,2.020577,12.187439,1.730782C13.254037,1.491151,14.315594,1.782545,15.094980,2.431725C15.649857,2.893159,16.060021,3.532504,16.230062,4.289512L16.401947,5.052913L18.279160,13.399061L19.571742,2.966561C19.619570,2.580987,19.730225,2.218036,19.893627,1.888897C20.470512,0.712872,21.701250,-0.051513,23.058627,0.002709C23.122807,0.004553,23.188955,0.010209,23.257562,0.016233C23.263955,0.015741,23.272316,0.018077,23.280922,0.017831C23.350512,0.026438,23.418750,0.036151,23.486865,0.045864C24.517070,0.220577,25.368135,0.871110,25.856004,1.743077C25.991865,1.986643,26.100799,2.247913,26.175922,2.521110C26.297275,2.951192,26.335758,3.410659,26.278094,3.875536L24.966824,14.459266L29.357275,4.971889C29.575266,4.502094,29.888299,4.105946,30.261455,3.794266C31.161701,3.047217,32.415799,2.794922,33.567357,3.210250C33.650471,3.239143,33.732971,3.272831,33.815225,3.309102C33.828258,3.314389,33.838832,3.319430,33.849160,3.325700C34.137357,3.459225,34.397766,3.626561,34.627438,3.823528C35.501250,4.569840,35.936373,5.717709,35.782070,6.853282C35.738053,7.178610,35.644611,7.502709,35.499160,7.816725L31.685348,16.050004L36.766045,12.090618C38.241455,10.941643,40.364570,11.204635,41.513545,12.680045C42.664365,14.152012,42.400758,16.278815,40.926578,17.427913"
                        fill="rgb(255,203,190)" fill-rule="evenodd" stroke="none" stroke-width="1"/>
                  <path id="association-fill-9"
                        d="M22.575873,24.917831C20.632389,21.681274,17.915422,20.493692,15.976857,20.067053C15.692963,20.004594,15.417676,19.956766,15.153086,19.919881C14.054643,15.434758,10.931447,2.205618,12.187512,1.730413C10.363906,2.140086,9.219357,3.950782,9.629152,5.774389L11.449684,13.872791C12.035053,16.480086,12.285627,19.146766,12.197471,21.808651C12.197471,21.808651,12.269152,21.782586,12.401693,21.743364C13.306611,21.475086,14.261938,21.422340,15.192430,21.581930C17.042225,21.899143,19.460053,22.899102,21.176816,25.757832C21.311324,25.981725,21.535709,26.118077,21.776570,26.147831C21.951529,26.169594,22.134480,26.135290,22.296652,26.038036C22.683086,25.805045,22.807635,25.304020,22.575873,24.917831"
                        fill="rgb(234,172,157)" fill-rule="evenodd" stroke="none" stroke-width="1"/>
                  <path id="association-fill-11"
                        d="M15.562094,36.538541L1.767135,71.069155C1.141807,70.325918,0.551889,69.555262,0.000086,68.760999L13.441193,33.527844C13.543611,32.700508,13.218283,31.887188,12.600086,31.327393C12.597873,31.324688,12.594553,31.321737,12.591111,31.318786L12.590004,31.318663L2.429225,22.063786C2.250947,21.901737,2.094676,21.723827,1.959307,21.536082C1.069389,20.299565,1.107381,18.583417,2.120742,17.383418C2.147176,17.350713,2.178652,17.316286,2.207299,17.285057C1.885045,17.715999,2.163406,18.518622,2.812709,19.508377C4.664471,22.330836,9.529020,26.676286,12.059963,28.247352C15.476766,30.368008,16.045906,32.633868,15.562094,36.538541"
                        fill="rgb(234,172,157)" fill-rule="evenodd" stroke="none" stroke-width="1"/>
                  <path id="association-fill-13"
                        d="M25.725344,44.412569L13.936451,74.897364C8.907639,72.481872,3.012148,73.097241,0.000098,68.761012L11.647229,39.028553L25.725344,44.412569Z"
                        fill="rgb(235,77,22)" fill-rule="evenodd" stroke="none" stroke-width="1"/>
                  <path id="association-fill-15"
                        d="M16.141967,40.747565L3.532131,72.997319C2.226393,71.685803,1.045943,70.266827,-0,68.761049L11.647131,39.028590L16.141967,40.747565Z"
                        fill="rgb(122,43,15)" fill-rule="evenodd" stroke="none" stroke-width="1"/>
                  <path id="association-fill-18"
                        d="M22.561045,52.073573L9.000553,46.887508C8.148627,46.561811,7.722111,45.606975,8.047807,44.755172L11.188094,36.543778C11.513914,35.691975,12.468750,35.265336,13.320553,35.591155L26.881168,40.777221C27.732971,41.102917,28.159611,42.057754,27.833791,42.909680L24.693504,51.120950C24.367684,51.972877,23.413094,52.399393,22.561045,52.073573"
                        fill="rgb(246,241,241)" fill-rule="evenodd" stroke="none" stroke-width="1"/>
                  <path id="association-fill-20"
                        d="M14.426484,48.962463L9.001402,46.887667C8.149352,46.561848,7.721975,45.607258,8.047918,44.755086L11.188082,36.544061C11.513902,35.692012,12.469598,35.265127,13.321770,35.590946L18.746730,37.665618C17.894680,37.339799,16.940090,37.767176,16.614148,38.619225L13.473984,46.830250C13.148164,47.682422,13.574312,48.636520,14.426484,48.962463"
                        fill="rgb(223,234,239)" fill-rule="evenodd" stroke="none" stroke-width="1"/>
                  <path id="association-fill-3"
                        d="M41.514443,12.678581C40.731615,11.674319,37.154607,14.535385,34.912475,16.501123C33.924074,17.367557,32.397762,17.154975,31.685508,16.050262L36.765713,12.090139C38.240139,10.941901,40.365959,11.205385,41.514443,12.678581"
                        fill="rgb(234,172,157)" fill-rule="evenodd" stroke="none" stroke-width="1"/>
                  <path id="association-fill-5"
                        d="M33.816443,3.310245C32.523738,2.822131,29.307344,10.023237,27.724598,13.794385C27.264762,14.890245,25.874926,15.225655,24.965582,14.460532L29.357877,4.973401C30.138123,3.288975,32.128451,2.549795,33.816443,3.310245"
                        fill="rgb(234,172,157)" fill-rule="evenodd" stroke="none" stroke-width="1"/>
                  <path id="association-fill-7"
                        d="M18.279012,13.398692L19.571594,2.966807C19.797824,1.141110,21.438111,-0.164013,23.257537,0.016233C22.248111,0.008856,21.164914,8.024758,20.675201,12.143241C20.539094,13.287053,19.297414,13.937217,18.279012,13.398692"
                        fill="rgb(234,172,157)" fill-rule="evenodd" stroke="none" stroke-width="1"/>
                </g>
              </g>
            </g>
            <g id="association-hand2_to" transform="translate(65.233907,63.860472)">
              <g id="association-hand2_tr" transform="rotate(0)">
                <g id="association-hand2" transform="translate(-43.348707,-62.241332)">
                  <g id="association-group-24">
                    <g id="association-g3" mask="url(#association-mask-5)">
                      <path id="association-fill-22"
                            d="M36.524803,10.794037L36.504885,10.826742L34.991484,13.316127C33.786320,15.299938,32.826074,17.411373,32.120459,19.606168C31.416074,21.801824,30.969393,24.077643,30.795295,26.391947C30.640992,28.439447,30.811156,30.500103,31.298164,32.494857L43.605541,50.775430C40.763041,55.505225,36.670623,59.510103,31.598902,62.241332L16.540992,35.599365C16.343164,34.789488,15.750295,34.144488,14.973738,33.840430C14.970664,33.838586,14.966607,33.837111,14.962426,33.835635L14.961197,33.836004L2.177631,28.788750C0.479680,28.117438,-0.372369,26.229529,0.227262,24.522725C0.241525,24.482520,0.257508,24.439365,0.273246,24.400143C0.959680,22.660635,2.923574,21.808955,4.662836,22.494283L11.219557,25.083873C11.189803,24.998791,11.160787,24.910881,11.127344,24.825430C10.951525,24.317889,10.759107,23.815512,10.555623,23.318422C9.784107,21.438873,8.830746,19.633832,7.704639,17.929488L3.128041,11.003791C2.828164,10.548012,2.651361,10.046865,2.590377,9.537848C2.445910,8.308709,2.982836,7.044898,4.085705,6.316291C4.996770,5.714078,6.093861,5.609570,7.052877,5.939816C7.734148,6.174652,8.345705,6.626496,8.772098,7.274201L13.921525,15.063627L11.428082,4.851332C11.335992,4.473873,11.309434,4.095676,11.346689,3.729529C11.468656,2.425389,12.347016,1.274324,13.635172,0.843381C13.697016,0.821988,13.760951,0.803791,13.827221,0.785102C13.832754,0.782398,13.841607,0.781537,13.849598,0.778340C13.917713,0.761742,13.984844,0.746619,14.052098,0.731496C15.364475,0.471824,16.678328,1.048217,17.444434,2.091455C17.709270,2.450717,17.908328,2.866660,18.019353,3.321701L20.548943,13.682152L21.288369,3.253832C21.325500,2.737316,21.477590,2.255963,21.715869,1.831906C22.292385,0.814119,23.375459,0.133217,24.598082,0.113176C24.687344,0.110348,24.776484,0.112684,24.866238,0.117357C24.880254,0.117725,24.890705,0.118955,24.903738,0.120799C25.220705,0.143422,25.523533,0.207480,25.808041,0.310020C26.889885,0.697807,27.704066,1.616496,27.961525,2.733258C28.037016,3.052807,28.064557,3.388955,28.040090,3.734201L27.395951,12.784980L30.741074,7.280348C31.268287,6.412439,32.122303,5.867275,33.048615,5.705717C33.827385,5.567398,34.657672,5.702643,35.388861,6.146865C36.986975,7.114611,37.433041,9.299078,36.524803,10.794037"
                            fill="rgb(102,160,212)" fill-rule="evenodd" stroke="none" stroke-width="1"/>
                      <mask id="association-mask-5" mask-type="luminance">
                        <use id="association-use1" width="43.569706" height="62.129383" xlink:href="#association-path-4"
                             fill="rgb(255,255,255)" fill-rule="evenodd" stroke="none" stroke-width="1"/>
                      </mask>
                    </g>
                  </g>
                  <path id="association-fill-25"
                        d="M35.388824,6.145205C34.300463,5.484098,31.971529,9.428238,30.572840,12.061721C29.956242,13.222500,28.453783,13.565287,27.395914,12.785164L30.740299,7.280164C31.711488,5.683402,33.792430,5.175246,35.388824,6.145205"
                        fill="rgb(45,56,131)" fill-rule="evenodd" stroke="none" stroke-width="1"/>
                  <path id="association-fill-27"
                        d="M24.867529,0.117910C23.485807,0.120246,23.033840,7.994139,22.892324,12.081516C22.851258,13.269221,21.670807,14.076025,20.549127,13.683443L21.289168,3.255123C21.420971,1.403484,23.019578,0.006025,24.867529,0.117910"
                        fill="rgb(45,56,131)" fill-rule="evenodd" stroke="none" stroke-width="1"/>
                  <path id="association-fill-29"
                        d="M13.920934,15.063393L11.427738,4.851713C10.991385,3.064623,12.061795,1.262287,13.826754,0.785238C12.880402,1.136508,14.712246,9.015197,15.715770,13.039377C15.994377,14.157000,15.064254,15.205402,13.920934,15.063393"
                        fill="rgb(45,56,131)" fill-rule="evenodd" stroke="none" stroke-width="1"/>
                  <path id="association-fill-31"
                        d="M13.344123,23.816496C13.297279,23.154529,13.086418,22.441660,13.026910,21.853832C10.183672,17.708422,3.114000,7.175594,4.085434,6.315922C2.525926,7.346127,2.098303,9.445143,3.128631,11.004529L7.704369,17.929980C9.176705,20.159816,10.357279,22.564242,11.219410,25.084119C11.219410,25.084119,11.277197,25.034201,11.387115,24.950594C11.965598,24.509939,12.617852,24.180062,13.310189,23.968217C13.321500,23.917684,13.332812,23.867152,13.344123,23.816496"
                        fill="rgb(45,56,131)" fill-rule="evenodd" stroke="none" stroke-width="1"/>
                  <path id="association-fill-33"
                        d="M19.592164,37.661373L33.774172,60.953545C33.071262,61.409816,32.344992,61.839160,31.598803,62.241332L16.541016,35.599365C16.343189,34.789488,15.750320,34.144488,14.973762,33.840430C14.970688,33.838586,14.966631,33.837111,14.962451,33.835635L14.961221,33.836004L2.177533,28.788750C0.479705,28.117438,-0.372344,26.229529,0.227287,24.522725C0.241426,24.482520,0.257533,24.439365,0.273270,24.400143C-0.298943,26.390103,9.424992,30.382070,13.374664,31.152848C17.322738,31.922766,18.658844,33.839324,19.592164,37.661373"
                        fill="rgb(45,56,131)" fill-rule="evenodd" stroke="none" stroke-width="1"/>
                </g>
              </g>
            </g>
          </g>
        </g>
        <mask id="association-mask-3" mask-type="luminance">
          <use id="association-use2" width="64.143456" height="75.000420" xlink:href="#association-path-2"
               fill="rgb(255,255,255)" fill-rule="evenodd" stroke="none" stroke-width="1"/>
        </mask>
      </g>
    </g>
  </g>
</svg>
