<svg id="community" xmlns="http://www.w3.org/2000/svg" xmlns:xlink="http://www.w3.org/1999/xlink" viewBox="0 0 70 78" shape-rendering="geometricPrecision" text-rendering="geometricPrecision"><style><![CDATA[]]></style><defs><path id="community-path-2" d="M50,0L59.339176,0C62.157824,0,64.442719,2.284895,64.442719,5.103398L64.793116,54.586681C64.793116,57.405185,62.508222,59.690079,59.689573,59.690079L46.931077,59.690079C46.128495,59.692681,45.373175,60.070341,44.889718,60.710759L34.861417,74.081778C34.374925,74.663950,33.655159,75.000419,32.896515,75.000419C32.137870,75.000419,31.418249,74.663950,30.931757,74.081778L20.903456,60.710759C20.419855,60.070341,19.664679,59.692681,18.862097,59.690079L6.103456,59.690079C3.284808,59.690079,1.000058,57.405185,1.000058,54.586681L0.649660,5.103398C0.649660,2.284895,2.934410,0,5.753059,0L50,0Z"/><linearGradient id="community-border-fill" x1="0" y1="0.056816" x2="1" y2="0.943184" spreadMethod="pad" gradientUnits="objectBoundingBox"><stop id="community-border-fill-0" offset="0%" stop-color="rgb(2,170,176)"/><stop id="community-border-fill-1" offset="100%" stop-color="rgb(0,205,172)"/></linearGradient></defs><g id="community-community"><path id="community-bg" d="M62.196487,13.467719C65.068463,13.467719,67.396587,15.795843,67.396587,18.667672L67.396587,53.767722C67.396587,56.639552,65.068463,58.967675,62.196487,58.967675L49.196605,58.967675C48.378838,58.970326,47.609228,59.355131,47.116624,60.007666L36.898591,73.631660C36.402895,74.224847,35.669511,74.567681,34.896513,74.567681C34.123516,74.567681,33.390280,74.224847,32.894583,73.631660L22.676551,60.007666C22.183799,59.355131,21.414336,58.970326,20.596569,58.967675L7.596540,58.967675C4.724564,58.967675,2.396587,56.639552,2.396587,53.767722L2.396587,18.667672C2.396587,15.795843,4.724564,13.467719,7.596540,13.467719L62.196487,13.467719Z" fill="rgb(255,255,255)" stroke="none" stroke-width="1"/><path id="community-border" d="M62,11L8.103456,11.034982C3.627990,11.034982,0.000058,14.662985,0.000058,19.138380L0.000058,53.586681L0.003773,53.834424C0.134716,58.195202,3.710869,61.690079,8.103456,61.690079L20.638000,61.690000L30.531760,74.881783L30.629719,75.005478C31.686198,76.269738,33.248951,77.000419,34.896515,77.000419C36.544067,77.000419,38.106969,76.269747,39.163456,75.005478L39.261414,74.881783L49.154000,61.690000L62,61.655098C66.475467,61.655098,70.103543,58.027093,70.103543,53.551699L70.103543,19.103398C70.103543,14.628005,66.475467,11,62,11ZM62,14C64.818648,14,67.103543,16.284895,67.103543,19.103398L67.103543,53.551699C67.103543,56.370203,64.818648,58.655098,62,58.655098L49.241504,58.655098C48.438922,58.657699,47.373175,59.070341,46.889718,59.710759L36.861417,73.081778C36.374925,73.663950,35.655159,74.000419,34.896515,74.000419C34.137870,74.000419,33.418249,73.663950,32.931757,73.081778L22.903456,59.710759C22.419855,59.070341,21.664679,58.692681,20.862097,58.690079L8.103456,58.690079C5.284808,58.690079,3.000058,56.405185,3.000058,53.586681L3.000058,19.138380C3.000058,16.319876,5.284808,14.034982,8.103456,14.034982L62,14Z" fill="url(#community-border-fill)" stroke="none" stroke-width="1"/><g id="community-speakgroup" transform="matrix(1 0 0 1 2 0)"><g id="community-g1" mask="url(#community-mask-3)"><g id="community-group-45_to" transform="translate(2.000042,77.000419)"><g id="community-group-45_ts" transform="scale(1,1)"><g id="community-group-45" transform="translate(-2.000042,-77.000419)"><g id="community-g2_tr" transform="translate(41.454077,63.600858) rotate(0)"><g id="community-g2" transform="translate(-39.454077,-61.600858)"><g id="community-hand_to" transform="translate(13.649358,37)"><g id="community-hand" transform="translate(0,0)"><path id="community-fill-1" d="M0.876166,20.331309C0.876166,20.331309,-0.273618,27.439067,4.848149,32.456309C9.969916,37.473550,16.224326,46.845757,17.487416,58.160891L30.802339,51.342878C30.802339,51.342878,26.668968,46.081882,24.262365,40.080007C23.153554,37.314671,22.411003,34.392128,22.609184,31.754313C23.194110,23.951666,20.832244,18.584054,20.832244,18.584054L4.443425,20.018985L0.876166,20.331309Z" fill="rgb(255,164,96)" fill-rule="evenodd" stroke="none" stroke-width="1"/><path id="community-fill-3" d="M12.235368,26.700864L0.374191,4.620403C-0.445709,3.094743,0.126674,1.193209,1.652334,0.373726C3.178411,-0.445339,5.079528,0.126627,5.899010,1.652286L18.593467,25.284329" fill="rgb(3,130,123)" fill-rule="evenodd" stroke="none" stroke-width="1"/><path id="community-fill-5" d="M0.876166,20.331309C0.876166,20.331309,2.634710,13.515804,4.117722,10.939451C5.153365,9.140352,8.010266,7.991822,8.010266,12.172856C8.010266,16.353891,7.452934,20.331309,7.452934,20.331309L0.876166,20.331309Z" fill="rgb(255,164,96)" fill-rule="evenodd" stroke="none" stroke-width="1"/><path id="community-fill-7" d="M24.262407,40.080174C23.153596,37.314838,22.411044,34.392295,22.609226,31.754480C23.194152,23.951834,20.832286,18.584222,20.832286,18.584222L8.010307,13.319881C8.010307,13.319881,-0.909512,20.665122,12.070092,33.174360C16.686790,37.623816,24.262407,40.080174,24.262407,40.080174" fill="rgb(231,138,86)" fill-rule="evenodd" stroke="none" stroke-width="1"/><path id="community-fill-9" d="M18.593509,25.284455L20.492117,28.818683C21.312018,30.344761,20.739216,32.245877,19.213556,33.064942C18.759078,33.309114,18.271151,33.429946,17.787824,33.438726C16.651000,33.459213,15.542608,32.857563,14.967298,31.786800L12.235410,26.700989" fill="rgb(3,130,123)" fill-rule="evenodd" stroke="none" stroke-width="1"/><path id="community-fill-11" d="M14.421422,27.921684C14.421422,27.921684,22.365388,26.528145,24.316258,24.297981C26.267547,22.068236,22.643845,13.215313,16.930043,9.140477C11.215823,5.065223,7.214155,15.024029,6.706159,15.759055C6.198582,16.493662,5.083500,19.350563,5.850301,20.604874C6.616685,21.859184,7.661944,21.301852,7.661944,21.301852C7.661944,21.301852,6.726646,22.283559,7.423207,23.119766C8.120185,23.955973,9.195129,23.670826,9.195129,23.670826C9.195129,23.670826,8.570064,24.689326,9.101892,25.405538C9.856987,26.423619,10.867543,25.900990,10.867543,25.900990C10.867543,25.900990,10.379616,26.806602,11.006771,27.433757C11.633926,28.060913,13.295051,28.023701,13.295051,28.023701C13.295051,28.023701,14.099901,27.981473,14.421422,27.921684" fill="rgb(255,164,96)" fill-rule="evenodd" stroke="none" stroke-width="1"/><path id="community-fill-13" d="M8.023729,21.092800C7.988190,21.092800,7.952233,21.081094,7.922966,21.056007C7.856905,21.000400,7.848125,20.901727,7.903733,20.835249C8.120729,20.576443,13.228698,14.484675,13.499211,14.205801C13.560254,14.143503,13.659345,14.142249,13.720806,14.202456C13.783103,14.262662,13.784358,14.361753,13.724569,14.424050C13.514263,14.640628,9.982125,18.844240,8.144142,21.036775C8.112785,21.073568,8.068466,21.092800,8.023729,21.092800" fill="rgb(231,138,86)" fill-rule="evenodd" stroke="none" stroke-width="1"/><path id="community-fill-15" d="M9.195129,23.828033C9.143702,23.828033,9.093948,23.802947,9.063844,23.756956C9.016181,23.684624,9.036668,23.587624,9.109000,23.540378C9.374495,23.366447,15.623051,19.279904,16.865655,18.781106C16.945513,18.749331,17.037495,18.787378,17.069271,18.868072C17.101465,18.948348,17.062582,19.039494,16.982306,19.071688C15.768551,19.559197,9.345646,23.760300,9.280840,23.802111C9.254500,23.819671,9.224396,23.828033,9.195129,23.828033" fill="rgb(231,138,86)" fill-rule="evenodd" stroke="none" stroke-width="1"/><path id="community-fill-17" d="M10.867375,26.057779C10.799643,26.057779,10.737345,26.013878,10.717276,25.945727C10.692608,25.862525,10.739436,25.775559,10.822638,25.750891C10.894552,25.729568,18.018617,23.606020,18.939281,23.196697C19.019138,23.161994,19.110703,23.197115,19.146242,23.276555C19.181363,23.355576,19.145824,23.448395,19.066802,23.483516C18.127742,23.900783,11.206457,25.963287,10.912113,26.051089C10.897061,26.055688,10.882009,26.057779,10.867375,26.057779" fill="rgb(231,138,86)" fill-rule="evenodd" stroke="none" stroke-width="1"/><path id="community-fill-19" d="M5.702293,10.416069C5.240707,10.617595,4.860651,10.970892,4.618150,11.412828C4.287849,12.014478,3.825844,12.886642,3.759784,13.173879C3.655258,13.627104,3.621810,14.045207,4.082560,14.149733C4.543728,14.254259,6.059353,14.463310,6.581982,14.149733C7.104612,13.836155,7.364254,12.061306,7.050676,11.225099C6.817793,10.604216,6.330284,10.141793,5.702293,10.416069" fill="rgb(205,80,62)" fill-rule="evenodd" stroke="none" stroke-width="1"/><path id="community-fill-21" d="M8.158483,17.625469C8.158483,17.625469,6.799647,16.637908,6.329281,18.094581C5.858914,19.550835,6.268238,20.491568,6.664600,20.674697C7.060962,20.857408,7.792643,20.752882,8.628850,19.524912C9.465057,18.296525,8.362100,17.748391,8.158483,17.625469" fill="rgb(205,80,62)" fill-rule="evenodd" stroke="none" stroke-width="1"/><path id="community-fill-23" d="M8.824815,20.870662C8.824815,20.870662,7.269888,22.177235,7.923384,22.817352C8.576461,23.457468,10.066164,22.360365,10.066164,22.360365C10.066164,22.360365,10.771504,21.860313,10.144349,21.092675C9.517194,20.325037,8.888366,20.814636,8.824815,20.870662" fill="rgb(205,80,62)" fill-rule="evenodd" stroke="none" stroke-width="1"/><path id="community-fill-25" d="M12.940541,25.707032C12.940541,25.707032,11.212520,25.993433,11.415718,26.755635C11.618916,27.517838,13.206873,27.358122,13.206873,27.358122C13.206873,27.358122,13.949843,27.297497,13.821903,26.452092C13.694382,25.606687,13.012455,25.694071,12.940541,25.707032" fill="rgb(205,80,62)" fill-rule="evenodd" stroke="none" stroke-width="1"/><path id="community-fill-27" d="M10.773051,23.479753C10.773051,23.479753,9.086422,24.048792,9.543409,25.029663C10.000396,26.010951,11.599224,25.099486,11.947504,24.890434C12.295784,24.681382,11.808276,23.461775,11.633926,23.340107C11.459577,23.218020,11.013043,23.383589,10.773051,23.479753" fill="rgb(205,80,62)" fill-rule="evenodd" stroke="none" stroke-width="1"/></g></g><g id="community-main_to" transform="translate(39.604063,21.790655)"><g id="community-main_ts" transform="scale(0.986653,0.986653)"><g id="community-main" transform="translate(-41.145760,-20.122005)"><path id="community-fill-29" d="M22.558897,39.475237C22.558897,39.475237,19.764293,40.466142,17.480194,42.971418C15.370026,45.286875,13.280345,46.598466,13.280345,46.598466C9.515323,48.526759,4.245547,45.759750,1.510315,40.418478C-1.224918,35.076789,-0.031233,29.763530,3.375474,27.255746C4.786155,26.217177,7.062729,26.074185,9.590164,25.760608C12.118017,25.447030,14.509151,23.753293,14.509151,23.753293C14.509151,23.753293,18.238216,22.311254,18.921815,17.607591C19.605832,12.903927,24.553250,3.715685,31.957444,0L51.737918,39.556767C51.737918,39.556767,44.378461,44.016677,35.702815,42.484746C27.027168,40.952397,27.707004,37.719621,22.558897,39.475237" fill="rgb(1,186,174)" fill-rule="evenodd" stroke="none" stroke-width="1"/><path id="community-fill-40" d="M14.022688,33.924328C12.037951,30.048928,12.318498,25.823574,14.509360,23.753126C14.083731,23.835074,13.670644,23.974303,13.278045,24.175410C10.153140,25.775492,9.460343,30.666048,11.730226,35.098363C13.999692,39.530678,18.373054,41.826902,21.497541,40.226820C21.890140,40.026130,22.244274,39.772341,22.559106,39.475070C19.598933,40.042018,16.007006,37.799729,14.022688,33.924328" fill="rgb(82,236,228)" fill-rule="evenodd" stroke="none" stroke-width="1"/></g></g></g><g id="community-speaker_to" transform="translate(41.145802,21.377485)"><g id="community-speaker_ts" transform="scale(1,1)"><g id="community-speaker" transform="translate(-21.173502,-20.959516)"><path id="community-fill-31" d="M35.067240,13.845045C40.640977,24.729950,38.939296,36.739135,31.265843,40.668471C23.592809,44.597807,12.853822,38.959264,7.280085,28.073941C1.705930,17.189036,3.408029,5.179851,11.081063,1.250514C18.754098,-2.678822,29.493085,2.960139,35.067240,13.845045" fill="rgb(242,242,242)" fill-rule="evenodd" stroke="none" stroke-width="1"/><path id="community-fill-34" d="M31.506002,16.107026C36.158239,25.192414,34.546032,35.314280,27.905713,38.714716C21.264976,42.115569,12.110183,37.506815,7.457528,28.421427C2.805291,19.336039,4.417498,9.214173,11.058235,5.813737C17.698972,2.413302,26.853347,7.021638,31.506002,16.107026" fill="rgb(231,231,231)" fill-rule="evenodd" stroke="none" stroke-width="1"/><path id="community-fill-36" d="M21.173453,20.959535L17.709884,14.195457C17.709884,14.195457,13.223216,15.497849,10.157264,20.959535C8.951453,23.108586,6.586660,24.914793,3.919160,25.406483C1.479945,25.855944,4.902958,28.793121,4.902958,28.793121C4.902958,28.793121,6.121729,32.704479,7.319596,32.181431C9.912673,31.049625,12.430492,29.461668,14.928660,29.803677C21.134570,30.652427,24.479397,27.801797,24.479397,27.801797L21.173453,20.959535Z" fill="rgb(3,130,123)" fill-rule="evenodd" stroke="none" stroke-width="1"/><path id="community-fill-38" d="M11.080980,1.250682C3.407945,5.179600,1.706264,17.189203,7.280001,28.074108C12.853738,38.959013,23.592725,44.597975,31.265760,40.668220L27.574743,42.558884C19.901708,46.487802,9.162721,40.849259,3.588566,29.964354C-1.985171,19.079449,-0.283490,7.069845,7.389962,3.140927L11.080980,1.250682" fill="rgb(82,236,228)" fill-rule="evenodd" stroke="none" stroke-width="1"/><path id="community-fill-42" d="M25.941630,18.517852C27.854454,22.253607,27.270781,26.374852,24.637148,27.723654C22.003932,29.072038,18.318350,27.136637,16.405109,23.401301C14.492286,19.665546,15.076794,15.544301,17.710010,14.195499C20.343225,12.847115,24.028807,14.782098,25.941630,18.517852" fill="rgb(82,236,228)" fill-rule="evenodd" stroke="none" stroke-width="1"/></g></g></g></g></g></g></g></g><mask id="community-mask-3" mask-type="luminance"><use id="community-use1" width="64.143456" height="75.000420" xlink:href="#community-path-2" fill="rgb(255,255,255)" fill-rule="evenodd" stroke="none" stroke-width="1"/></mask></g></g></g></svg>
