<?xml version="1.0" encoding="UTF-8" standalone="no"?>
<!-- Created with Keyshape -->
<svg xmlns="http://www.w3.org/2000/svg" id="community" viewBox="0 0 70 78" shape-rendering="geometricPrecision" text-rendering="geometricPrecision">
    <defs>
        <linearGradient id="Gradient-0" x1="0" y1="0.056816" x2="1" y2="0.943184">
            <stop offset="0" stop-color="#02aab0"/>
            <stop offset="1" stop-color="#00cdac"/>
        </linearGradient>
        <mask id="community-mask-3">
            <g id="community-use1" fill="rgb(255,255,255)" fill-rule="evenodd" stroke="none" stroke-width="1" transform="translate(32.7214,37.5002) translate(-32.7214,-37.5002)">
                <path id="community-path-3" d="M50,0L59.3392,0C62.1578,0,64.4427,2.2849,64.4427,5.1034L64.7931,54.5867C64.7931,57.4052,62.5082,59.6901,59.6896,59.6901L46.9311,59.6901C46.1285,59.6927,45.3732,60.0703,44.8897,60.7108L34.8614,74.0818C34.3749,74.6639,33.6552,75.0004,32.8965,75.0004C32.1379,75.0004,31.4182,74.6639,30.9318,74.0818L20.9035,60.7108C20.4199,60.0703,19.6647,59.6927,18.8621,59.6901L6.10346,59.6901C3.28481,59.6901,1.00006,57.4052,1.00006,54.5867L0.64966,5.1034C0.64966,2.2849,2.93441,0,5.75306,0L50,0Z" transform="translate(32.7214,37.5002) translate(-32.7214,-37.5002)"/>
            </g>
        </mask>
    </defs>
    <style>
@keyframes community-group-45_to_t { 0% { transform: translate(2.000042px,77.000419px); } 100% { transform: translate(25.000042px,77.000419px); } }
    </style>
    <g id="community-community" transform="translate(35.0517,49.7894) translate(-35.0518,-49.7894)">
        <path id="community-bg" d="M62.1965,13.4677C65.0685,13.4677,67.3966,15.7958,67.3966,18.6677L67.3966,53.7677C67.3966,56.6396,65.0685,58.9677,62.1965,58.9677L49.1966,58.9677C48.3788,58.9703,47.6092,59.3551,47.1166,60.0077L36.8986,73.6317C36.4029,74.2248,35.6695,74.5677,34.8965,74.5677C34.1235,74.5677,33.3903,74.2248,32.8946,73.6317L22.6766,60.0077C22.1838,59.3551,21.4143,58.9703,20.5966,58.9677L7.59654,58.9677C4.72456,58.9677,2.39659,56.6396,2.39659,53.7677L2.39659,18.6677C2.39659,15.7958,4.72456,13.4677,7.59654,13.4677L62.1965,13.4677Z" fill="rgb(255,255,255)" stroke="none" stroke-width="1" transform="translate(34.8966,44.0177) translate(-34.8966,-44.0177)"/>
        <path id="community-border" d="M62,11L8.10346,11.035C3.62799,11.035,5.8e-05,14.663,5.8e-05,19.1384L5.8e-05,53.5867L0.003773,53.8344C0.134716,58.1952,3.71087,61.6901,8.10346,61.6901L20.638,61.69L30.5318,74.8818L30.6297,75.0055C31.6862,76.2697,33.249,77.0004,34.8965,77.0004C36.5441,77.0004,38.107,76.2697,39.1635,75.0055L39.2614,74.8818L49.154,61.69L62,61.6551C66.4755,61.6551,70.1035,58.0271,70.1035,53.5517L70.1035,19.1034C70.1035,14.628,66.4755,11,62,11ZM62,14C64.8186,14,67.1035,16.2849,67.1035,19.1034L67.1035,53.5517C67.1035,56.3702,64.8186,58.6551,62,58.6551L49.2415,58.6551C48.4389,58.6577,47.3732,59.0703,46.8897,59.7108L36.8614,73.0818C36.3749,73.6639,35.6552,74.0004,34.8965,74.0004C34.1379,74.0004,33.4182,73.6639,32.9318,73.0818L22.9035,59.7108C22.4199,59.0703,21.6647,58.6927,20.8621,58.6901L8.10346,58.6901C5.28481,58.6901,3.00006,56.4052,3.00006,53.5867L3.00006,19.1384C3.00006,16.3199,5.28481,14.035,8.10346,14.035L62,14Z" fill="url(#Gradient-0)" stroke="none" stroke-width="1" transform="translate(35.0518,44.0002) translate(-35.0518,-44.0002)"/>
        <g id="community-speakgroup" transform="translate(32.6634,49.7894) translate(-30.6634,-49.7894)">
            <g id="community-g1" mask="url(#community-mask-3)" transform="translate(30.6634,49.7894) translate(-30.6634,-49.7894)">
                <g id="community-group-45_to" transform="translate(30.6634,49.7894) translate(-28.6634,27.211)" style="animation: 1s linear both community-group-45_to_t;">
                    <g id="community-group-45_ts" transform="translate(28.6634,-27.211) translate(-28.6634,27.211)">
                        <g id="community-group-45" transform="translate(28.6634,-27.211) translate(-30.6634,-49.7894)">
                            <g id="community-g2_tr" transform="translate(30.6634,49.7894) translate(10.7906,13.8114)">
                                <g id="community-g2" transform="translate(-10.7906,-13.8114) translate(-28.6634,-47.7894)">
                                    <g id="community-hand_to" transform="translate(29.0505,66.0804) translate(-15.4012,-29.0804)">
                                        <g id="community-hand" transform="translate(15.4012,29.0804) translate(-15.4012,-29.0804)">
                                            <path id="community-fill-1" d="M0.876166,20.3313C0.876166,20.3313,-0.273618,27.4391,4.84815,32.4563C9.96992,37.4736,16.2243,46.8458,17.4874,58.1609L30.8023,51.3429C30.8023,51.3429,26.669,46.0819,24.2624,40.08C23.1536,37.3147,22.411,34.3921,22.6092,31.7543C23.1941,23.9517,20.8322,18.5841,20.8322,18.5841L4.44343,20.019L0.876166,20.3313Z" fill="rgb(255,164,96)" fill-rule="evenodd" stroke="none" stroke-width="1" transform="translate(15.7841,38.3725) translate(-15.7841,-38.3725)"/>
                                            <path id="community-fill-3" d="M12.2354,26.7009L0.374191,4.6204C-0.445709,3.09474,0.126674,1.19321,1.65233,0.373726C3.17841,-0.445339,5.07953,0.126627,5.89901,1.65229L18.5935,25.2843" fill="rgb(3,130,123)" fill-rule="evenodd" stroke="none" stroke-width="1" transform="translate(9.29673,13.3504) translate(-9.29673,-13.3504)"/>
                                            <path id="community-fill-5" d="M0.876166,20.3313C0.876166,20.3313,2.63471,13.5158,4.11772,10.9395C5.15336,9.14035,8.01027,7.99182,8.01027,12.1729C8.01027,16.3539,7.45293,20.3313,7.45293,20.3313L0.876166,20.3313Z" fill="rgb(255,164,96)" fill-rule="evenodd" stroke="none" stroke-width="1" transform="translate(4.44322,14.8224) translate(-4.44322,-14.8224)"/>
                                            <path id="community-fill-7" d="M24.2624,40.0802C23.1536,37.3148,22.411,34.3923,22.6092,31.7545C23.1942,23.9518,20.8323,18.5842,20.8323,18.5842L8.01031,13.3199C8.01031,13.3199,-0.909512,20.6651,12.0701,33.1744C16.6868,37.6238,24.2624,40.0802,24.2624,40.0802" fill="rgb(231,138,86)" fill-rule="evenodd" stroke="none" stroke-width="1" transform="translate(14.642,26.7) translate(-14.642,-26.7)"/>
                                            <path id="community-fill-9" d="M18.5935,25.2845L20.4921,28.8187C21.312,30.3448,20.7392,32.2459,19.2136,33.0649C18.7591,33.3091,18.2712,33.4299,17.7878,33.4387C16.651,33.4592,15.5426,32.8576,14.9673,31.7868L12.2354,26.701" fill="rgb(3,130,123)" fill-rule="evenodd" stroke="none" stroke-width="1" transform="translate(16.5508,29.3618) translate(-16.5508,-29.3618)"/>
                                            <path id="community-fill-11" d="M14.4214,27.9217C14.4214,27.9217,22.3654,26.5281,24.3163,24.298C26.2675,22.0682,22.6438,13.2153,16.93,9.14048C11.2158,5.06522,7.21415,15.024,6.70616,15.7591C6.19858,16.4937,5.0835,19.3506,5.8503,20.6049C6.61668,21.8592,7.66194,21.3019,7.66194,21.3019C7.66194,21.3019,6.72665,22.2836,7.42321,23.1198C8.12018,23.956,9.19513,23.6708,9.19513,23.6708C9.19513,23.6708,8.57006,24.6893,9.10189,25.4055C9.85699,26.4236,10.8675,25.901,10.8675,25.901C10.8675,25.901,10.3796,26.8066,11.0068,27.4338C11.6339,28.0609,13.2951,28.0237,13.2951,28.0237C13.2951,28.0237,14.0999,27.9815,14.4214,27.9217" fill="rgb(255,164,96)" fill-rule="evenodd" stroke="none" stroke-width="1" transform="translate(15.2189,18.0943) translate(-15.2189,-18.0943)"/>
                                            <path id="community-fill-13" d="M8.02373,21.0928C7.98819,21.0928,7.95223,21.0811,7.92297,21.056C7.8569,21.0004,7.84812,20.9017,7.90373,20.8352C8.12073,20.5764,13.2287,14.4847,13.4992,14.2058C13.5603,14.1435,13.6593,14.1422,13.7208,14.2025C13.7831,14.2627,13.7844,14.3618,13.7246,14.424C13.5143,14.6406,9.98212,18.8442,8.14414,21.0368C8.11279,21.0736,8.06847,21.0928,8.02373,21.0928" fill="rgb(231,138,86)" fill-rule="evenodd" stroke="none" stroke-width="1" transform="translate(10.8178,17.6255) translate(-10.8178,-17.6255)"/>
                                            <path id="community-fill-15" d="M9.19513,23.828C9.1437,23.828,9.09395,23.8029,9.06384,23.757C9.01618,23.6846,9.03667,23.5876,9.109,23.5404C9.3745,23.3664,15.6231,19.2799,16.8657,18.7811C16.9455,18.7493,17.0375,18.7874,17.0693,18.8681C17.1015,18.9483,17.0626,19.0395,16.9823,19.0717C15.7686,19.5592,9.34565,23.7603,9.28084,23.8021C9.2545,23.8197,9.2244,23.828,9.19513,23.828" fill="rgb(231,138,86)" fill-rule="evenodd" stroke="none" stroke-width="1" transform="translate(13.0593,21.299) translate(-13.0593,-21.299)"/>
                                            <path id="community-fill-17" d="M10.8674,26.0578C10.7996,26.0578,10.7373,26.0139,10.7173,25.9457C10.6926,25.8625,10.7394,25.7756,10.8226,25.7509C10.8946,25.7296,18.0186,23.606,18.9393,23.1967C19.0191,23.162,19.1107,23.1971,19.1462,23.2766C19.1814,23.3556,19.1458,23.4484,19.0668,23.4835C18.1277,23.9008,11.2065,25.9633,10.9121,26.0511C10.8971,26.0557,10.882,26.0578,10.8674,26.0578" fill="rgb(231,138,86)" fill-rule="evenodd" stroke="none" stroke-width="1" transform="translate(14.9352,24.6206) translate(-14.9352,-24.6206)"/>
                                            <path id="community-fill-19" d="M5.70229,10.4161C5.24071,10.6176,4.86065,10.9709,4.61815,11.4128C4.28785,12.0145,3.82584,12.8866,3.75978,13.1739C3.65526,13.6271,3.62181,14.0452,4.08256,14.1497C4.54373,14.2543,6.05935,14.4633,6.58198,14.1497C7.10461,13.8362,7.36425,12.0613,7.05068,11.2251C6.81779,10.6042,6.33028,10.1418,5.70229,10.4161" fill="rgb(205,80,62)" fill-rule="evenodd" stroke="none" stroke-width="1" transform="translate(5.44039,12.3253) translate(-5.44039,-12.3253)"/>
                                            <path id="community-fill-21" d="M8.15848,17.6255C8.15848,17.6255,6.79965,16.6379,6.32928,18.0946C5.85891,19.5508,6.26824,20.4916,6.6646,20.6747C7.06096,20.8574,7.79264,20.7529,8.62885,19.5249C9.46506,18.2965,8.3621,17.7484,8.15848,17.6255" fill="rgb(205,80,62)" fill-rule="evenodd" stroke="none" stroke-width="1" transform="translate(7.52834,19.0217) translate(-7.52834,-19.0217)"/>
                                            <path id="community-fill-23" d="M8.82481,20.8707C8.82481,20.8707,7.26989,22.1772,7.92338,22.8174C8.57646,23.4575,10.0662,22.3604,10.0662,22.3604C10.0662,22.3604,10.7715,21.8603,10.1443,21.0927C9.51719,20.325,8.88837,20.8146,8.82481,20.8707" fill="rgb(205,80,62)" fill-rule="evenodd" stroke="none" stroke-width="1" transform="translate(9.08359,21.8416) translate(-9.08359,-21.8416)"/>
                                            <path id="community-fill-25" d="M12.9405,25.707C12.9405,25.707,11.2125,25.9934,11.4157,26.7556C11.6189,27.5178,13.2069,27.3581,13.2069,27.3581C13.2069,27.3581,13.9498,27.2975,13.8219,26.4521C13.6944,25.6067,13.0125,25.6941,12.9405,25.707" fill="rgb(205,80,62)" fill-rule="evenodd" stroke="none" stroke-width="1" transform="translate(12.6179,26.5352) translate(-12.6179,-26.5352)"/>
                                            <path id="community-fill-27" d="M10.7731,23.4798C10.7731,23.4798,9.08642,24.0488,9.54341,25.0297C10.0004,26.011,11.5992,25.0995,11.9475,24.8904C12.2958,24.6814,11.8083,23.4618,11.6339,23.3401C11.4596,23.218,11.013,23.3836,10.7731,23.4798" fill="rgb(205,80,62)" fill-rule="evenodd" stroke="none" stroke-width="1" transform="translate(10.7674,24.3865) translate(-10.7674,-24.3865)"/>
                                        </g>
                                    </g>
                                    <g id="community-main_to" transform="translate(24.5312,25.2282) translate(15.0729,-3.43758)">
                                        <g id="community-main_ts" transform="translate(-15.0729,3.43758) scale(0.986653,0.986653) translate(15.2768,-3.48409)">
                                            <g id="community-main" transform="translate(-15.2768,3.48409) translate(-25.869,-23.6061)">
                                                <path id="community-fill-29" d="M22.5589,39.4752C22.5589,39.4752,19.7643,40.4661,17.4802,42.9714C15.37,45.2869,13.2803,46.5985,13.2803,46.5985C9.51532,48.5268,4.24555,45.7598,1.51032,40.4185C-1.22492,35.0768,-0.031233,29.7635,3.37547,27.2557C4.78615,26.2172,7.06273,26.0742,9.59016,25.7606C12.118,25.447,14.5092,23.7533,14.5092,23.7533C14.5092,23.7533,18.2382,22.3113,18.9218,17.6076C19.6058,12.9039,24.5533,3.71568,31.9574,0L51.7379,39.5568C51.7379,39.5568,44.3785,44.0167,35.7028,42.4847C27.0272,40.9524,27.707,37.7196,22.5589,39.4752" fill="rgb(1,186,174)" fill-rule="evenodd" stroke="none" stroke-width="1" transform="translate(25.869,23.6061) translate(-25.869,-23.6061)"/>
                                                <path id="community-fill-40" d="M14.0227,33.9243C12.038,30.0489,12.3185,25.8236,14.5094,23.7531C14.0837,23.8351,13.6706,23.9743,13.278,24.1754C10.1531,25.7755,9.46034,30.666,11.7302,35.0984C13.9997,39.5307,18.3731,41.8269,21.4975,40.2268C21.8901,40.0261,22.2443,39.7723,22.5591,39.4751C19.5989,40.042,16.007,37.7997,14.0227,33.9243" fill="rgb(82,236,228)" fill-rule="evenodd" stroke="none" stroke-width="1" transform="translate(16.4768,32.2446) translate(-16.4768,-32.2446)"/>
                                            </g>
                                        </g>
                                    </g>
                                    <g id="community-speaker_to" transform="translate(39.3002,22.3226) translate(1.8456,-0.9451)">
                                        <g id="community-speaker_ts" transform="translate(-1.8456,0.9451) translate(1.8456,-0.9451)">
                                            <g id="community-speaker" transform="translate(-1.8456,0.9451) translate(-19.3279,-21.9046)">
                                                <path id="community-fill-31" d="M35.0672,13.845C40.641,24.73,38.9393,36.7391,31.2658,40.6685C23.5928,44.5978,12.8538,38.9593,7.28008,28.0739C1.70593,17.189,3.40803,5.17985,11.0811,1.25051C18.7541,-2.67882,29.4931,2.96014,35.0672,13.845" fill="rgb(242,242,242)" fill-rule="evenodd" stroke="none" stroke-width="1" transform="translate(21.1736,20.9595) translate(-21.1736,-20.9595)"/>
                                                <path id="community-fill-34" d="M31.506,16.107C36.1582,25.1924,34.546,35.3143,27.9057,38.7147C21.265,42.1156,12.1102,37.5068,7.45753,28.4214C2.80529,19.336,4.4175,9.21417,11.0582,5.81374C17.699,2.4133,26.8533,7.02164,31.506,16.107" fill="rgb(231,231,231)" fill-rule="evenodd" stroke="none" stroke-width="1" transform="translate(19.4818,22.2643) translate(-19.4818,-22.2643)"/>
                                                <path id="community-fill-36" d="M21.1735,20.9595L17.7099,14.1955C17.7099,14.1955,13.2232,15.4978,10.1573,20.9595C8.95145,23.1086,6.58666,24.9148,3.91916,25.4065C1.47994,25.8559,4.90296,28.7931,4.90296,28.7931C4.90296,28.7931,6.12173,32.7045,7.3196,32.1814C9.91267,31.0496,12.4305,29.4617,14.9287,29.8037C21.1346,30.6524,24.4794,27.8018,24.4794,27.8018L21.1735,20.9595Z" fill="rgb(3,130,123)" fill-rule="evenodd" stroke="none" stroke-width="1" transform="translate(13.7608,23.2125) translate(-13.7608,-23.2125)"/>
                                                <path id="community-fill-38" d="M11.081,1.25068C3.40794,5.1796,1.70626,17.1892,7.28,28.0741C12.8537,38.959,23.5927,44.598,31.2658,40.6682L27.5747,42.5589C19.9017,46.4878,9.16272,40.8493,3.58857,29.9644C-1.98517,19.0794,-0.28349,7.06984,7.38996,3.14093L11.081,1.25068" fill="rgb(82,236,228)" fill-rule="evenodd" stroke="none" stroke-width="1" transform="translate(15.7872,22.53) translate(-15.7872,-22.53)"/>
                                                <path id="community-fill-42" d="M25.9416,18.5179C27.8545,22.2536,27.2708,26.3749,24.6371,27.7237C22.0039,29.072,18.3184,27.1366,16.4051,23.4013C14.4923,19.6655,15.0768,15.5443,17.71,14.1955C20.3432,12.8471,24.0288,14.7821,25.9416,18.5179" fill="rgb(82,236,228)" fill-rule="evenodd" stroke="none" stroke-width="1" transform="translate(21.1735,20.9596) translate(-21.1735,-20.9596)"/>
                                            </g>
                                        </g>
                                    </g>
                                </g>
                            </g>
                        </g>
                    </g>
                </g>
            </g>
        </g>
    </g>
</svg>
